<svg width="80" height="80" viewBox="0 0 80 80" fill="none" xmlns="http://www.w3.org/2000/svg">
<path d="M51.86 41.5792H60.0933C60.1067 41.9255 60.1066 42.2325 60.1066 42.5001C60.1066 46.2542 59.0666 49.2607 56.98 51.5116C54.9 53.7704 52.1467 54.8959 48.7267 54.8959C44.6333 54.8959 41.5866 53.5186 39.58 50.7718C37.5733 48.0251 36.5667 44.7746 36.5667 41.0204C36.5667 37.0852 37.5933 33.819 39.64 31.2218C41.6866 28.6246 44.4733 27.3181 47.9867 27.3181C51.1467 27.3181 53.7933 28.4514 55.9267 30.7181V27.7431H58.8067V36.5264H55.9267C55.3867 35.0547 54.42 33.7403 53.04 32.5991C51.6533 31.4501 50.0733 30.8755 48.2933 30.8755C45.82 30.8755 43.8667 31.8593 42.4333 33.8348C41 35.8102 40.2867 38.1871 40.2867 40.9653C40.2867 44.1528 41.1 46.6871 42.7333 48.5524C44.3667 50.4177 46.3333 51.3542 48.6333 51.3542C50.4333 51.3542 52.04 50.7639 53.4533 49.5755C54.8667 48.3871 55.6867 46.8366 55.9267 44.9163H51.84L51.86 41.5792Z" fill="white"/>
<path d="M65.22 51.1339V31.0881H62.4333V27.7432H69.9667C72.04 27.7432 73.5933 27.8927 74.6267 28.1839C75.66 28.483 76.5733 29.2228 77.3667 30.4191C78.16 31.6154 78.5534 33.0242 78.5534 34.6376C78.5534 35.8811 78.32 36.9987 77.8467 37.9983C77.3733 38.9978 76.68 39.7534 75.7733 40.2649C77.0333 40.7765 78 41.6265 78.68 42.8071C79.36 43.9955 79.7 45.3492 79.7 46.8682C79.7 48.1904 79.4467 49.3867 78.9467 50.4649C78.4467 51.5432 77.7733 52.3696 76.9333 52.9598C76.1 53.5501 75.1867 53.9436 74.1933 54.1483C73.2 54.3529 71.8467 54.4552 70.1333 54.4552H62.4333V51.1339H65.22ZM68.64 38.8719H70.7733C72.4 38.8719 73.54 38.5334 74.1867 37.8645C74.8334 37.1955 75.1534 36.2038 75.1534 34.8973C75.1534 32.3631 73.6933 31.0959 70.7733 31.0959H68.64V38.8719ZM68.64 51.1339H69.9267C71.6067 51.1339 72.84 51.0316 73.62 50.8348C74.4 50.6381 75.04 50.1659 75.5333 49.4339C76.0267 48.6941 76.2733 47.7496 76.2733 46.6006C76.2733 45.5538 76.04 44.6723 75.5667 43.9561C75.0933 43.2399 74.4867 42.7756 73.7467 42.5316C73 42.2955 71.9533 42.1774 70.6 42.1774H68.6467L68.64 51.1339Z" fill="white"/>
<path d="M2.86667 65.6468L4.9 72.4232C5.34667 73.9107 5.76 75.288 6.04667 76.6653H6.14C6.48666 75.3116 7 73.8871 7.50666 72.4547L10.02 65.6468H12.3733L14.76 72.313C15.3333 73.9107 15.78 75.3195 16.1267 76.6653H16.22C16.4733 75.3116 16.8867 73.9107 17.4 72.3366L19.5933 65.6468H22.36L17.4 78.9792H14.8533L12.5 72.6121C11.96 71.1246 11.5133 69.8023 11.1333 68.2283H11.0667C10.6867 69.826 10.2067 71.2033 9.66667 72.6357L7.18667 78.9713H4.64L0 65.6389H2.86667V65.6468Z" fill="white"/>
<path d="M33.5533 78.9791L33.3333 77.3028H33.2333C32.3733 78.3495 30.7199 79.2861 28.5266 79.2861C25.4133 79.2861 23.8199 77.3815 23.8199 75.4532C23.8199 72.2264 27.1266 70.4713 33.0733 70.4949V70.2194C33.0733 69.1176 32.7266 67.1342 29.5733 67.1342C28.1399 67.1342 26.6466 67.5199 25.5666 68.1259L24.9333 66.5282C26.2066 65.812 28.0466 65.3477 29.9866 65.3477C34.6933 65.3477 35.8399 68.1259 35.8399 70.8018V75.7838C35.8399 76.9407 35.9066 78.0662 36.0933 78.9791H33.5533ZM33.1399 72.1713C30.0866 72.1162 26.6199 72.5805 26.6199 75.1778C26.6199 76.7518 27.8266 77.4916 29.2599 77.4916C31.2599 77.4916 32.5333 76.3898 32.9799 75.2643C33.0733 75.0125 33.1399 74.737 33.1399 74.493V72.1713Z" fill="white"/>
<path d="M40.36 59.4214H43.16V78.9793H40.36V59.4214Z" fill="white"/>
<path d="M47.86 59.4214H50.66V78.9793H47.86V59.4214Z" fill="white"/>
<path d="M56.9267 72.7537C56.9867 76.0357 59.4067 77.3815 62.2067 77.3815C64.2133 77.3815 65.42 77.0824 66.4667 76.6889L66.9467 78.4204C65.96 78.806 64.2733 79.2468 61.8267 79.2468C57.0867 79.2468 54.26 76.5472 54.26 72.5255C54.26 68.5037 56.9933 65.3398 61.48 65.3398C66.5067 65.3398 67.84 69.1727 67.84 71.6204C67.84 72.1162 67.78 72.5019 67.7467 72.7459H56.9267V72.7537ZM65.1267 71.0144C65.16 69.4718 64.3933 67.0792 61.2467 67.0792C58.42 67.0792 57.1733 69.338 56.9533 71.0144H65.1267Z" fill="white"/>
<path d="M74.6666 61.814V65.6468H78.6733V67.4964H74.6666V74.682C74.6666 76.3348 75.2066 77.2714 76.7666 77.2714C77.5 77.2714 78.04 77.1927 78.3866 77.1061L78.5133 78.9241C77.9733 79.113 77.1133 79.2547 76.0333 79.2547C74.7266 79.2547 73.68 78.8927 73.0133 78.2316C72.22 77.5154 71.9333 76.3269 71.9333 74.7607V67.4885H69.5466V65.639H71.9333V62.4436L74.6666 61.814Z" fill="white"/>
<path d="M53.7601 13.6787L52.0801 5.68237L24.0801 13.8912L53.7601 13.6787Z" fill="white"/>
<path d="M21.3534 13.8912L43.8 7.3037L40.5734 0L17.9867 13.9148L21.3534 13.8912Z" fill="white"/>
<path d="M12.1667 13.9306L17.0133 13.8991L29.28 6.31996L24.68 0.125977L11.4133 13.844C11.5067 13.8834 11.5933 13.9385 11.68 13.9857C11.8467 13.9542 12.0067 13.9306 12.1667 13.9306Z" fill="white"/>
<path d="M53.5333 17.9995C55.0467 17.9995 56.0667 19.1407 56.0667 20.8328L53.5333 17.9995Z" fill="white"/>
<path d="M53.5333 17.9995C55.0467 17.9995 56.0667 19.1407 56.0667 20.8328" stroke="white" stroke-width="3" stroke-miterlimit="10"/>
<path d="M2.68005 20.9903C2.68005 19.2037 3.64672 17.9995 5.08005 17.9995L2.68005 20.9903Z" fill="white"/>
<path d="M2.68005 20.9903C2.68005 19.2037 3.64672 17.9995 5.08005 17.9995" stroke="white" stroke-width="3" stroke-miterlimit="10"/>
<path d="M53.5734 17.9995H5.08008" stroke="white" stroke-width="3" stroke-miterlimit="10"/>
<path d="M5.21339 59.9959C3.70005 59.9959 2.68005 58.8547 2.68005 57.1626L5.21339 59.9959Z" fill="white"/>
<path d="M5.21339 59.9959C3.70005 59.9959 2.68005 58.8547 2.68005 57.1626" stroke="white" stroke-width="3" stroke-miterlimit="10"/>
<path d="M55.9734 57.0051C55.9734 58.7917 55.0067 59.9959 53.5734 59.9959L55.9734 57.0051Z" fill="white"/>
<path d="M55.9734 57.0051C55.9734 58.7917 55.0067 59.9959 53.5734 59.9959" stroke="white" stroke-width="3" stroke-miterlimit="10"/>
<path d="M2.68005 20.9902V57.1625" stroke="white" stroke-width="3" stroke-miterlimit="10"/>
<path d="M38.2067 59.9958H5.03333" stroke="white" stroke-width="2.4814" stroke-miterlimit="10"/>
</svg>
