<svg width="45" height="45" viewBox="0 0 45 45" fill="none" xmlns="http://www.w3.org/2000/svg">
<g clip-path="url(#clip0_230_1855)">
<path d="M12.2272 19.4095L13.7121 19.6217L12.2272 19.4095ZM12.197 19.6206L10.7121 19.4085L12.197 19.6206ZM32.7726 19.4095L34.2576 19.1974L32.7726 19.4095ZM32.8029 19.6206L31.3179 19.8327V19.8328L32.8029 19.6206ZM28.5 37.5V39C29.3284 39 30 38.3283 30 37.5H28.5ZM16.5 37.5H15C15 38.3283 15.6716 39 16.5 39V37.5ZM14.2665 27.4587L15.4526 26.5406L14.2665 27.4587ZM30.7335 27.4587L29.5473 26.5406L30.7335 27.4587ZM18 45H27V42H18V45ZM10.7423 19.1974L10.7121 19.4085L13.6819 19.8327L13.7121 19.6217L10.7423 19.1974ZM22.4999 9C16.5893 9 11.5781 13.3462 10.7423 19.1974L13.7121 19.6217C14.3369 15.2484 18.0823 12 22.4999 12V9ZM34.2576 19.1974C33.4218 13.3462 28.4106 9 22.4999 9V12C26.9177 12 30.663 15.2484 31.2879 19.6217L34.2576 19.1974ZM34.2879 19.4085L34.2576 19.1974L31.2879 19.6217L31.3179 19.8327L34.2879 19.4085ZM31.9197 28.3768C33.8088 25.9362 34.7655 22.7519 34.2879 19.4085L31.3179 19.8328C31.6755 22.3363 30.9627 24.7119 29.5473 26.5406L31.9197 28.3768ZM27 32.7039V37.5H30V32.7039H27ZM28.5 36H16.5V39H28.5V36ZM18 37.5V32.7039H15V37.5H18ZM10.7121 19.4085C10.2344 22.7519 11.1913 25.9363 13.0803 28.3769L15.4526 26.5406C14.0372 24.7119 13.3243 22.3363 13.6819 19.8327L10.7121 19.4085ZM18 32.7039C18 30.2325 16.6863 28.1344 15.4526 26.5406L13.0803 28.3769C14.2303 29.8628 15 31.281 15 32.7039H18ZM29.5473 26.5406C28.3137 28.1344 27 30.2325 27 32.7039H30C30 31.281 30.7695 29.8627 31.9197 28.3768L29.5473 26.5406ZM21 0V6H24V0H21ZM0 24H6V21H0V24ZM39 24H45V21H39V24ZM10.0606 10.9394L5.56065 6.43935L3.43935 8.56065L7.93935 13.0606L10.0606 10.9394ZM37.0608 13.0606L41.5608 8.56065L39.4392 6.43935L34.9392 10.9394L37.0608 13.0606Z" fill="white"/>
</g>
<defs>
<clipPath id="clip0_230_1855">
<rect width="45" height="45" fill="white"/>
</clipPath>
</defs>
</svg>
