<svg width="20" height="20" viewBox="0 0 20 20" fill="none" xmlns="http://www.w3.org/2000/svg">
<g clip-path="url(#clip0_387_307)">
<path d="M19.6809 18.0851H0.319149C0.142894 18.0851 0 18.228 0 18.4043C0 18.5805 0.142894 18.7234 0.319149 18.7234H19.6809C19.8571 18.7234 20 18.5805 20 18.4043C20 18.228 19.8571 18.0851 19.6809 18.0851Z" fill="#604B4B"/>
<path d="M19.6809 19.3617H0.319149C0.142894 19.3617 0 19.5046 0 19.6808C0 19.8571 0.142894 20 0.319149 20H19.6809C19.8571 20 20 19.8571 20 19.6808C20 19.5046 19.8571 19.3617 19.6809 19.3617Z" fill="#604B4B"/>
<path d="M19.6809 1.2766H18.617V0.957447C18.617 0.429489 18.1875 0 17.6596 0C17.1317 0 16.7021 0.429489 16.7021 0.957447V1.2766H13.5106V0.957447C13.5106 0.429489 13.0811 0 12.5532 0C12.0253 0 11.5957 0.429489 11.5957 0.957447V1.2766H8.40426V0.957447C8.40426 0.429489 7.97477 0 7.44681 0C6.91885 0 6.48936 0.429489 6.48936 0.957447V1.2766H3.29787V0.957447C3.29787 0.429489 2.86838 0 2.34043 0C1.81247 0 1.38298 0.429489 1.38298 0.957447V1.2766H0.319149C0.142894 1.2766 0 1.41949 0 1.59574V17.1277C0 17.3039 0.142894 17.4468 0.319149 17.4468H19.6809C19.8571 17.4468 20 17.3039 20 17.1277V1.59574C20 1.41949 19.8571 1.2766 19.6809 1.2766ZM17.3404 0.957447C17.3404 0.781447 17.4836 0.638298 17.6596 0.638298C17.8356 0.638298 17.9787 0.781447 17.9787 0.957447V2.23404C17.9787 2.41004 17.8356 2.55319 17.6596 2.55319C17.4836 2.55319 17.3404 2.41004 17.3404 2.23404V0.957447ZM12.234 0.957447C12.234 0.781447 12.3772 0.638298 12.5532 0.638298C12.7292 0.638298 12.8723 0.781447 12.8723 0.957447V2.23404C12.8723 2.41004 12.7292 2.55319 12.5532 2.55319C12.3772 2.55319 12.234 2.41004 12.234 2.23404V0.957447ZM7.12766 0.957447C7.12766 0.781447 7.27081 0.638298 7.44681 0.638298C7.62281 0.638298 7.76596 0.781447 7.76596 0.957447V2.23404C7.76596 2.41004 7.62281 2.55319 7.44681 2.55319C7.27081 2.55319 7.12766 2.41004 7.12766 2.23404V0.957447ZM2.02128 0.957447C2.02128 0.781447 2.16443 0.638298 2.34043 0.638298C2.51643 0.638298 2.65957 0.781447 2.65957 0.957447V2.23404C2.65957 2.41004 2.51643 2.55319 2.34043 2.55319C2.16443 2.55319 2.02128 2.41004 2.02128 2.23404V0.957447ZM1.38298 1.91489V2.23404C1.38298 2.762 1.81247 3.19149 2.34043 3.19149C2.86838 3.19149 3.29787 2.762 3.29787 2.23404V1.91489H6.48936V2.23404C6.48936 2.762 6.91885 3.19149 7.44681 3.19149C7.97477 3.19149 8.40426 2.762 8.40426 2.23404V1.91489H11.5957V2.23404C11.5957 2.762 12.0253 3.19149 12.5532 3.19149C13.0811 3.19149 13.5106 2.762 13.5106 2.23404V1.91489H16.7021V2.23404C16.7021 2.762 17.1317 3.19149 17.6596 3.19149C18.1875 3.19149 18.617 2.762 18.617 2.23404V1.91489H19.3617V5.20426H0.638298V1.91489H1.38298ZM0.638298 16.8085V5.84255H19.3617V16.8085H0.638298Z" fill="#604B4B"/>
<path d="M17.532 9.65106H16.2554C16.0791 9.65106 15.9363 9.79396 15.9363 9.97021C15.9363 10.1465 16.0791 10.2894 16.2554 10.2894H17.532C17.7083 10.2894 17.8512 10.1465 17.8512 9.97021C17.8512 9.79396 17.7083 9.65106 17.532 9.65106Z" fill="#604B4B"/>
<path d="M14.085 9.65106H12.8084C12.6321 9.65106 12.4893 9.79396 12.4893 9.97021C12.4893 10.1465 12.6321 10.2894 12.8084 10.2894H14.085C14.2613 10.2894 14.4042 10.1465 14.4042 9.97021C14.4042 9.79396 14.2613 9.65106 14.085 9.65106Z" fill="#604B4B"/>
<path d="M10.6382 9.65106H9.36163C9.18537 9.65106 9.04248 9.79396 9.04248 9.97021C9.04248 10.1465 9.18537 10.2894 9.36163 10.2894H10.6382C10.8145 10.2894 10.9574 10.1465 10.9574 9.97021C10.9574 9.79396 10.8145 9.65106 10.6382 9.65106Z" fill="#604B4B"/>
<path d="M7.19145 9.65106H5.91485C5.7386 9.65106 5.5957 9.79396 5.5957 9.97021C5.5957 10.1465 5.7386 10.2894 5.91485 10.2894H7.19145C7.3677 10.2894 7.5106 10.1465 7.5106 9.97021C7.5106 9.79396 7.3677 9.65106 7.19145 9.65106Z" fill="#604B4B"/>
<path d="M3.74467 9.65106H2.46807C2.29182 9.65106 2.14893 9.79396 2.14893 9.97021C2.14893 10.1465 2.29182 10.2894 2.46807 10.2894H3.74467C3.92093 10.2894 4.06382 10.1465 4.06382 9.97021C4.06382 9.79396 3.92093 9.65106 3.74467 9.65106Z" fill="#604B4B"/>
<path d="M14.085 11.9489H12.8084C12.6321 11.9489 12.4893 12.0918 12.4893 12.2681C12.4893 12.4443 12.6321 12.5872 12.8084 12.5872H14.085C14.2613 12.5872 14.4042 12.4443 14.4042 12.2681C14.4042 12.0918 14.2613 11.9489 14.085 11.9489Z" fill="#604B4B"/>
<path d="M10.6382 11.9489H9.36163C9.18537 11.9489 9.04248 12.0918 9.04248 12.2681C9.04248 12.4443 9.18537 12.5872 9.36163 12.5872H10.6382C10.8145 12.5872 10.9574 12.4443 10.9574 12.2681C10.9574 12.0918 10.8145 11.9489 10.6382 11.9489Z" fill="#604B4B"/>
<path d="M7.19145 11.9489H5.91485C5.7386 11.9489 5.5957 12.0918 5.5957 12.2681C5.5957 12.4443 5.7386 12.5872 5.91485 12.5872H7.19145C7.3677 12.5872 7.5106 12.4443 7.5106 12.2681C7.5106 12.0918 7.3677 11.9489 7.19145 11.9489Z" fill="#604B4B"/>
<path d="M3.74467 11.9489H2.46807C2.29182 11.9489 2.14893 12.0918 2.14893 12.2681C2.14893 12.4443 2.29182 12.5872 2.46807 12.5872H3.74467C3.92093 12.5872 4.06382 12.4443 4.06382 12.2681C4.06382 12.0918 3.92093 11.9489 3.74467 11.9489Z" fill="#604B4B"/>
<path d="M14.085 14.2468H12.8084C12.6321 14.2468 12.4893 14.3897 12.4893 14.5659C12.4893 14.7422 12.6321 14.8851 12.8084 14.8851H14.085C14.2613 14.8851 14.4042 14.7422 14.4042 14.5659C14.4042 14.3897 14.2613 14.2468 14.085 14.2468Z" fill="#604B4B"/>
<path d="M17.532 11.9489H16.2554C16.0791 11.9489 15.9363 12.0918 15.9363 12.2681C15.9363 12.4443 16.0791 12.5872 16.2554 12.5872H17.532C17.7083 12.5872 17.8512 12.4443 17.8512 12.2681C17.8512 12.0918 17.7083 11.9489 17.532 11.9489Z" fill="#604B4B"/>
<path d="M17.532 14.2468H16.2554C16.0791 14.2468 15.9363 14.3897 15.9363 14.5659C15.9363 14.7422 16.0791 14.8851 16.2554 14.8851H17.532C17.7083 14.8851 17.8512 14.7422 17.8512 14.5659C17.8512 14.3897 17.7083 14.2468 17.532 14.2468Z" fill="#604B4B"/>
<path d="M10.6382 14.2468H9.36163C9.18537 14.2468 9.04248 14.3897 9.04248 14.5659C9.04248 14.7422 9.18537 14.8851 9.36163 14.8851H10.6382C10.8145 14.8851 10.9574 14.7422 10.9574 14.5659C10.9574 14.3897 10.8145 14.2468 10.6382 14.2468Z" fill="#604B4B"/>
<path d="M7.19145 14.2468H5.91485C5.7386 14.2468 5.5957 14.3897 5.5957 14.5659C5.5957 14.7422 5.7386 14.8851 5.91485 14.8851H7.19145C7.3677 14.8851 7.5106 14.7422 7.5106 14.5659C7.5106 14.3897 7.3677 14.2468 7.19145 14.2468Z" fill="#604B4B"/>
<path d="M3.74467 14.2468H2.46807C2.29182 14.2468 2.14893 14.3897 2.14893 14.5659C2.14893 14.7422 2.29182 14.8851 2.46807 14.8851H3.74467C3.92093 14.8851 4.06382 14.7422 4.06382 14.5659C4.06382 14.3897 3.92093 14.2468 3.74467 14.2468Z" fill="#604B4B"/>
<path d="M17.532 7.35318H16.2554C16.0791 7.35318 15.9363 7.49607 15.9363 7.67233C15.9363 7.84858 16.0791 7.99148 16.2554 7.99148H17.532C17.7083 7.99148 17.8512 7.84858 17.8512 7.67233C17.8512 7.49607 17.7083 7.35318 17.532 7.35318Z" fill="#604B4B"/>
<path d="M14.085 7.35318H12.8084C12.6321 7.35318 12.4893 7.49607 12.4893 7.67233C12.4893 7.84858 12.6321 7.99148 12.8084 7.99148H14.085C14.2613 7.99148 14.4042 7.84858 14.4042 7.67233C14.4042 7.49607 14.2613 7.35318 14.085 7.35318Z" fill="#604B4B"/>
<path d="M10.6382 7.35318H9.36163C9.18537 7.35318 9.04248 7.49607 9.04248 7.67233C9.04248 7.84858 9.18537 7.99148 9.36163 7.99148H10.6382C10.8145 7.99148 10.9574 7.84858 10.9574 7.67233C10.9574 7.49607 10.8145 7.35318 10.6382 7.35318Z" fill="#604B4B"/>
<path d="M7.19145 7.35318H5.91485C5.7386 7.35318 5.5957 7.49607 5.5957 7.67233C5.5957 7.84858 5.7386 7.99148 5.91485 7.99148H7.19145C7.3677 7.99148 7.5106 7.84858 7.5106 7.67233C7.5106 7.49607 7.3677 7.35318 7.19145 7.35318Z" fill="#604B4B"/>
<path d="M3.74467 7.35318H2.46807C2.29182 7.35318 2.14893 7.49607 2.14893 7.67233C2.14893 7.84858 2.29182 7.99148 2.46807 7.99148H3.74467C3.92093 7.99148 4.06382 7.84858 4.06382 7.67233C4.06382 7.49607 3.92093 7.35318 3.74467 7.35318Z" fill="#604B4B"/>
</g>
<defs>
<clipPath id="clip0_387_307">
<rect width="20" height="20" fill="white"/>
</clipPath>
</defs>
</svg>
