<svg width="45" height="45" viewBox="0 0 45 45" fill="none" xmlns="http://www.w3.org/2000/svg">
<path d="M41.7857 16.5C41.7857 16.4464 41.7857 16.3928 41.7857 16.3393L39.3214 5.24997C38.7857 2.78568 36.5893 1.01782 34.0714 1.01782H10.3929C7.875 1.01782 5.67857 2.78568 5.14286 5.24997L2.67857 16.3928C2.625 16.5535 2.625 16.6607 2.67857 16.8214C1.07143 17.7321 0 19.5 0 21.4821V32.1964C0 33.8571 0.910714 35.25 2.19643 36.2142C2.19643 36.2678 2.14286 36.375 2.14286 36.4821V40.2321C2.14286 42.3214 3.80357 43.9821 5.89286 43.9821H6.96429C9.05357 43.9821 10.7143 42.3214 10.7143 40.2321V37.5535H34.2857V40.2321C34.2857 42.3214 35.9464 43.9821 38.0357 43.9821H39.1071C41.1964 43.9821 42.8571 42.3214 42.8571 40.2321V36.4821C44.1429 35.5178 45 33.9642 45 32.1964V21.4285C45 19.2321 43.6607 17.3571 41.7857 16.5ZM7.28571 5.73211C7.60714 4.28568 8.89286 3.21425 10.3929 3.21425H34.0714C35.5714 3.21425 36.9107 4.28568 37.1786 5.73211L39.4821 16.0714H5.35714C5.25 16.0714 5.08929 16.0714 4.98214 16.0714L7.28571 5.73211ZM8.57143 40.1785C8.57143 41.0892 7.875 41.7857 6.96429 41.7857H5.89286C4.98214 41.7857 4.28571 41.0892 4.28571 40.1785V37.2321C4.82143 37.3928 5.35714 37.5 5.89286 37.5H8.57143V40.1785ZM40.7143 40.1785C40.7143 41.0892 40.0179 41.7857 39.1071 41.7857H38.0357C37.125 41.7857 36.4286 41.0892 36.4286 40.1785V37.5H39.6429C40.0179 37.5 40.3929 37.4464 40.7143 37.3928V40.1785ZM42.8571 32.1428C42.8571 33.9107 41.4107 35.3571 39.6429 35.3571H5.89286C4.17857 35.3571 2.14286 33.9107 2.14286 32.1428V21.4285C2.14286 19.6607 3.58929 18.2142 5.35714 18.2142H39.6429C41.4107 18.2142 42.8571 19.6607 42.8571 21.4285V32.1428Z" fill="white"/>
<path d="M8.0357 23.0356C6.26784 23.0356 4.82141 24.4821 4.82141 26.2499C4.82141 28.0178 6.26784 29.4642 8.0357 29.4642C9.80355 29.4642 11.25 28.0178 11.25 26.2499C11.25 24.4821 9.80355 23.0356 8.0357 23.0356ZM8.0357 27.3214C7.44641 27.3214 6.96427 26.8392 6.96427 26.2499C6.96427 25.6606 7.44641 25.1785 8.0357 25.1785C8.62498 25.1785 9.10713 25.6606 9.10713 26.2499C9.10713 26.8392 8.62498 27.3214 8.0357 27.3214Z" fill="white"/>
<path d="M36.9643 23.0356C35.1964 23.0356 33.75 24.4821 33.75 26.2499C33.75 28.0178 35.1964 29.4642 36.9643 29.4642C38.7321 29.4642 40.1786 28.0178 40.1786 26.2499C40.1786 24.4821 38.7321 23.0356 36.9643 23.0356ZM36.9643 27.3214C36.375 27.3214 35.8929 26.8392 35.8929 26.2499C35.8929 25.6606 36.375 25.1785 36.9643 25.1785C37.5536 25.1785 38.0357 25.6606 38.0357 26.2499C38.0357 26.8392 37.5536 27.3214 36.9643 27.3214Z" fill="white"/>
</svg>
