<svg width="832" height="102" viewBox="0 0 832 102" fill="none" xmlns="http://www.w3.org/2000/svg">
<rect x="244" width="100" height="100" rx="30" fill="#D9D9D9"/>
<path d="M301.344 58.8182L291.5 64.3553L281.656 58.8182V52.968L278.844 51.4055V60.463L291.5 67.5821L304.156 60.463V51.4055L301.344 52.968V58.8182Z" fill="white"/>
<path d="M291.5 32.041L271.812 42.2493V44.6869L291.5 55.6241L308.375 46.2494V54.0157H311.188V42.2493L291.5 32.041ZM305.562 44.5945L302.75 46.157L291.5 52.4073L280.25 46.157L277.438 44.5945L275.488 43.5115L291.5 35.2091L307.512 43.5115L305.562 44.5945Z" fill="white"/>
<path d="M301.344 58.8182L291.5 64.3553L281.656 58.8182V52.968L278.844 51.4055V60.463L291.5 67.5821L304.156 60.463V51.4055L301.344 52.968V58.8182Z" fill="white"/>
<path d="M291.5 32.041L271.812 42.2493V44.6869L291.5 55.6241L308.375 46.2494V54.0157H311.188V42.2493L291.5 32.041ZM305.562 44.5945L302.75 46.157L291.5 52.4073L280.25 46.157L277.438 44.5945L275.488 43.5115L291.5 35.2091L307.512 43.5115L305.562 44.5945Z" fill="white"/>
<rect width="100" height="100" rx="30" fill="#D9D9D9"/>
<path d="M70.2133 32.8798L54.1646 27.0539C54.0658 27.018 53.9639 27 53.8613 27H43.1392C43.0365 27 42.9343 27.018 42.8359 27.0539L26.7868 32.8798C26.321 33.0492 26 33.5835 26 34.1918V45.8443C26 46.2652 26.1549 46.6635 26.4206 46.9222C26.6856 47.181 27.0305 47.2731 27.3568 47.169L34.4314 44.9332V70.6339C34.4314 71.3883 34.9196 72 35.5217 72H61.4789C62.081 72 62.5691 71.3883 62.5691 70.6339V44.9331L69.6431 47.1689C69.9693 47.273 70.3147 47.1809 70.5799 46.9221C70.8451 46.6632 71 46.2651 71 45.8442V34.1917C71 33.5834 70.6795 33.0492 70.2133 32.8798ZM53.0964 29.732C52.7796 32.5596 50.8421 34.7441 48.5 34.7441C46.1579 34.7441 44.2205 32.5596 43.9037 29.732H53.0964ZM68.8198 44.0907L61.7457 41.8548C61.4199 41.7508 61.0739 41.8434 60.8089 42.1017C60.5438 42.3605 60.3888 42.7586 60.3888 43.1795V69.268H36.6118V43.1794C36.6118 42.7585 36.4569 42.3603 36.1912 42.1015C35.9261 41.8434 35.5813 41.7506 35.2549 41.8547L28.1803 44.0905V35.2183L41.768 30.2855C42.2924 34.355 45.1071 37.4762 48.5 37.4762C51.8933 37.4762 54.7074 34.355 55.2319 30.2855L68.8198 35.2184V44.0907Z" fill="white"/>
<rect x="122" width="100" height="100" rx="30" fill="#D9D9D9"/>
<path d="M190.786 44.5C190.786 44.4464 190.786 44.3928 190.786 44.3393L188.321 33.25C187.786 30.7857 185.589 29.0178 183.071 29.0178H159.393C156.875 29.0178 154.679 30.7857 154.143 33.25L151.679 44.3928C151.625 44.5535 151.625 44.6607 151.679 44.8214C150.071 45.7321 149 47.5 149 49.4821V60.1964C149 61.8571 149.911 63.25 151.196 64.2142C151.196 64.2678 151.143 64.375 151.143 64.4821V68.2321C151.143 70.3214 152.804 71.9821 154.893 71.9821H155.964C158.054 71.9821 159.714 70.3214 159.714 68.2321V65.5535H183.286V68.2321C183.286 70.3214 184.946 71.9821 187.036 71.9821H188.107C190.196 71.9821 191.857 70.3214 191.857 68.2321V64.4821C193.143 63.5178 194 61.9642 194 60.1964V49.4285C194 47.2321 192.661 45.3571 190.786 44.5ZM156.286 33.7321C156.607 32.2857 157.893 31.2143 159.393 31.2143H183.071C184.571 31.2143 185.911 32.2857 186.179 33.7321L188.482 44.0714H154.357C154.25 44.0714 154.089 44.0714 153.982 44.0714L156.286 33.7321ZM157.571 68.1785C157.571 69.0892 156.875 69.7857 155.964 69.7857H154.893C153.982 69.7857 153.286 69.0892 153.286 68.1785V65.2321C153.821 65.3928 154.357 65.5 154.893 65.5H157.571V68.1785ZM189.714 68.1785C189.714 69.0892 189.018 69.7857 188.107 69.7857H187.036C186.125 69.7857 185.429 69.0892 185.429 68.1785V65.5H188.643C189.018 65.5 189.393 65.4464 189.714 65.3928V68.1785ZM191.857 60.1428C191.857 61.9107 190.411 63.3571 188.643 63.3571H154.893C153.179 63.3571 151.143 61.9107 151.143 60.1428V49.4285C151.143 47.6607 152.589 46.2142 154.357 46.2142H188.643C190.411 46.2142 191.857 47.6607 191.857 49.4285V60.1428Z" fill="white"/>
<path d="M157.036 51.0356C155.268 51.0356 153.821 52.4821 153.821 54.2499C153.821 56.0178 155.268 57.4642 157.036 57.4642C158.804 57.4642 160.25 56.0178 160.25 54.2499C160.25 52.4821 158.804 51.0356 157.036 51.0356ZM157.036 55.3214C156.446 55.3214 155.964 54.8392 155.964 54.2499C155.964 53.6606 156.446 53.1785 157.036 53.1785C157.625 53.1785 158.107 53.6606 158.107 54.2499C158.107 54.8392 157.625 55.3214 157.036 55.3214Z" fill="white"/>
<path d="M185.964 51.0356C184.196 51.0356 182.75 52.4821 182.75 54.2499C182.75 56.0178 184.196 57.4642 185.964 57.4642C187.732 57.4642 189.179 56.0178 189.179 54.2499C189.179 52.4821 187.732 51.0356 185.964 51.0356ZM185.964 55.3214C185.375 55.3214 184.893 54.8392 184.893 54.2499C184.893 53.6606 185.375 53.1785 185.964 53.1785C186.554 53.1785 187.036 53.6606 187.036 54.2499C187.036 54.8392 186.554 55.3214 185.964 55.3214Z" fill="white"/>
<rect x="122" width="100" height="100" rx="30" fill="#D9D9D9"/>
<path d="M190.786 44.5C190.786 44.4464 190.786 44.3928 190.786 44.3393L188.321 33.25C187.786 30.7857 185.589 29.0178 183.071 29.0178H159.393C156.875 29.0178 154.679 30.7857 154.143 33.25L151.679 44.3928C151.625 44.5535 151.625 44.6607 151.679 44.8214C150.071 45.7321 149 47.5 149 49.4821V60.1964C149 61.8571 149.911 63.25 151.196 64.2142C151.196 64.2678 151.143 64.375 151.143 64.4821V68.2321C151.143 70.3214 152.804 71.9821 154.893 71.9821H155.964C158.054 71.9821 159.714 70.3214 159.714 68.2321V65.5535H183.286V68.2321C183.286 70.3214 184.946 71.9821 187.036 71.9821H188.107C190.196 71.9821 191.857 70.3214 191.857 68.2321V64.4821C193.143 63.5178 194 61.9642 194 60.1964V49.4285C194 47.2321 192.661 45.3571 190.786 44.5ZM156.286 33.7321C156.607 32.2857 157.893 31.2143 159.393 31.2143H183.071C184.571 31.2143 185.911 32.2857 186.179 33.7321L188.482 44.0714H154.357C154.25 44.0714 154.089 44.0714 153.982 44.0714L156.286 33.7321ZM157.571 68.1785C157.571 69.0892 156.875 69.7857 155.964 69.7857H154.893C153.982 69.7857 153.286 69.0892 153.286 68.1785V65.2321C153.821 65.3928 154.357 65.5 154.893 65.5H157.571V68.1785ZM189.714 68.1785C189.714 69.0892 189.018 69.7857 188.107 69.7857H187.036C186.125 69.7857 185.429 69.0892 185.429 68.1785V65.5H188.643C189.018 65.5 189.393 65.4464 189.714 65.3928V68.1785ZM191.857 60.1428C191.857 61.9107 190.411 63.3571 188.643 63.3571H154.893C153.179 63.3571 151.143 61.9107 151.143 60.1428V49.4285C151.143 47.6607 152.589 46.2142 154.357 46.2142H188.643C190.411 46.2142 191.857 47.6607 191.857 49.4285V60.1428Z" fill="white"/>
<path d="M157.036 51.0356C155.268 51.0356 153.821 52.4821 153.821 54.2499C153.821 56.0178 155.268 57.4642 157.036 57.4642C158.804 57.4642 160.25 56.0178 160.25 54.2499C160.25 52.4821 158.804 51.0356 157.036 51.0356ZM157.036 55.3214C156.446 55.3214 155.964 54.8392 155.964 54.2499C155.964 53.6606 156.446 53.1785 157.036 53.1785C157.625 53.1785 158.107 53.6606 158.107 54.2499C158.107 54.8392 157.625 55.3214 157.036 55.3214Z" fill="white"/>
<path d="M185.964 51.0356C184.196 51.0356 182.75 52.4821 182.75 54.2499C182.75 56.0178 184.196 57.4642 185.964 57.4642C187.732 57.4642 189.179 56.0178 189.179 54.2499C189.179 52.4821 187.732 51.0356 185.964 51.0356ZM185.964 55.3214C185.375 55.3214 184.893 54.8392 184.893 54.2499C184.893 53.6606 185.375 53.1785 185.964 53.1785C186.554 53.1785 187.036 53.6606 187.036 54.2499C187.036 54.8392 186.554 55.3214 185.964 55.3214Z" fill="white"/>
<rect x="122" width="100" height="100" rx="30" fill="#D9D9D9"/>
<path d="M190.786 44.5C190.786 44.4464 190.786 44.3928 190.786 44.3393L188.321 33.25C187.786 30.7857 185.589 29.0178 183.071 29.0178H159.393C156.875 29.0178 154.679 30.7857 154.143 33.25L151.679 44.3928C151.625 44.5535 151.625 44.6607 151.679 44.8214C150.071 45.7321 149 47.5 149 49.4821V60.1964C149 61.8571 149.911 63.25 151.196 64.2142C151.196 64.2678 151.143 64.375 151.143 64.4821V68.2321C151.143 70.3214 152.804 71.9821 154.893 71.9821H155.964C158.054 71.9821 159.714 70.3214 159.714 68.2321V65.5535H183.286V68.2321C183.286 70.3214 184.946 71.9821 187.036 71.9821H188.107C190.196 71.9821 191.857 70.3214 191.857 68.2321V64.4821C193.143 63.5178 194 61.9642 194 60.1964V49.4285C194 47.2321 192.661 45.3571 190.786 44.5ZM156.286 33.7321C156.607 32.2857 157.893 31.2143 159.393 31.2143H183.071C184.571 31.2143 185.911 32.2857 186.179 33.7321L188.482 44.0714H154.357C154.25 44.0714 154.089 44.0714 153.982 44.0714L156.286 33.7321ZM157.571 68.1785C157.571 69.0892 156.875 69.7857 155.964 69.7857H154.893C153.982 69.7857 153.286 69.0892 153.286 68.1785V65.2321C153.821 65.3928 154.357 65.5 154.893 65.5H157.571V68.1785ZM189.714 68.1785C189.714 69.0892 189.018 69.7857 188.107 69.7857H187.036C186.125 69.7857 185.429 69.0892 185.429 68.1785V65.5H188.643C189.018 65.5 189.393 65.4464 189.714 65.3928V68.1785ZM191.857 60.1428C191.857 61.9107 190.411 63.3571 188.643 63.3571H154.893C153.179 63.3571 151.143 61.9107 151.143 60.1428V49.4285C151.143 47.6607 152.589 46.2142 154.357 46.2142H188.643C190.411 46.2142 191.857 47.6607 191.857 49.4285V60.1428Z" fill="white"/>
<path d="M157.036 51.0356C155.268 51.0356 153.821 52.4821 153.821 54.2499C153.821 56.0178 155.268 57.4642 157.036 57.4642C158.804 57.4642 160.25 56.0178 160.25 54.2499C160.25 52.4821 158.804 51.0356 157.036 51.0356ZM157.036 55.3214C156.446 55.3214 155.964 54.8392 155.964 54.2499C155.964 53.6606 156.446 53.1785 157.036 53.1785C157.625 53.1785 158.107 53.6606 158.107 54.2499C158.107 54.8392 157.625 55.3214 157.036 55.3214Z" fill="white"/>
<path d="M185.964 51.0356C184.196 51.0356 182.75 52.4821 182.75 54.2499C182.75 56.0178 184.196 57.4642 185.964 57.4642C187.732 57.4642 189.179 56.0178 189.179 54.2499C189.179 52.4821 187.732 51.0356 185.964 51.0356ZM185.964 55.3214C185.375 55.3214 184.893 54.8392 184.893 54.2499C184.893 53.6606 185.375 53.1785 185.964 53.1785C186.554 53.1785 187.036 53.6606 187.036 54.2499C187.036 54.8392 186.554 55.3214 185.964 55.3214Z" fill="white"/>
<g filter="url(#filter0_i_522_61)">
<rect x="366" y="2" width="100" height="100" rx="30" fill="#B99494"/>
</g>
<rect x="488" y="2" width="100" height="100" rx="30" fill="#D9D9D9"/>
<rect x="610" y="2" width="100" height="100" rx="30" fill="#D9D9D9"/>
<rect x="732" y="2" width="100" height="100" rx="30" fill="#D9D9D9"/>
<g clip-path="url(#clip0_522_61)">
<path d="M428.969 54.2394C428.351 54.2394 427.741 54.0028 427.268 53.5296C420.769 47.0405 410.212 47.0405 403.714 53.5296C402.777 54.467 401.248 54.467 400.31 53.5296C399.373 52.5921 399.373 51.0632 400.31 50.1258C408.683 41.7528 422.298 41.7528 430.671 50.1258C431.609 51.0632 431.609 52.5921 430.671 53.5296C430.198 54.0028 429.579 54.2394 428.969 54.2394Z" fill="white"/>
<path d="M422.453 60.7466C421.834 60.7466 421.225 60.51 420.751 60.0367C419.35 58.6351 417.475 57.8616 415.491 57.8616C413.507 57.8616 411.632 58.6351 410.23 60.0367C409.293 60.9741 407.764 60.9741 406.827 60.0367C405.889 59.0993 405.889 57.5703 406.827 56.6329C409.138 54.3213 412.215 53.0471 415.491 53.0471C418.767 53.0471 421.843 54.3213 424.155 56.642C425.092 57.5794 425.092 59.1084 424.155 60.0458C423.691 60.51 423.072 60.7466 422.453 60.7466Z" fill="white"/>
<path d="M415.491 68.5189C417.265 68.5189 418.704 67.0806 418.704 65.3063C418.704 63.532 417.265 62.0936 415.491 62.0936C413.717 62.0936 412.278 63.532 412.278 65.3063C412.278 67.0806 413.717 68.5189 415.491 68.5189Z" fill="white"/>
<path d="M435.586 47.623C434.967 47.623 434.357 47.3863 433.884 46.9131C423.736 36.7745 407.245 36.7745 397.107 46.9131C396.169 47.8505 394.64 47.8505 393.703 46.9131C392.766 45.9757 392.766 44.4467 393.703 43.5093C399.528 37.6846 407.264 34.4811 415.5 34.4811C423.736 34.4811 431.472 37.6846 437.297 43.5093C438.234 44.4467 438.234 45.9757 437.297 46.9131C436.815 47.3863 436.196 47.623 435.586 47.623Z" fill="white"/>
</g>
<g clip-path="url(#clip1_522_61)">
<path d="M560 39.0843C560 37.5311 558.741 36.2718 557.188 36.2718H552.387C553.629 35.0463 554.424 33.4397 554.424 31.4611C554.424 29.0247 553.025 26.3782 549.097 26.3782C543.929 26.3782 539.612 31.8808 537.584 34.9654C535.554 31.8815 531.104 26.3789 525.937 26.3789C522.01 26.3789 520.61 29.0254 520.61 31.4618C520.61 33.4397 521.427 35.047 522.695 36.2725H517.813C516.259 36.2725 515 37.5318 515 39.085V47.5036H517.837V65.8094C517.837 67.3626 519.096 68.6219 520.65 68.6219H554.386C555.939 68.6219 557.198 67.3626 557.198 65.8094V47.5029H560V39.0843H560ZM549.097 29.1914C550.836 29.1914 551.612 29.922 551.612 31.4618C551.612 34.5858 548.125 36.2711 544.846 36.2711H540.085C542.083 33.3033 545.6 29.1914 549.097 29.1914ZM525.937 29.1914C529.435 29.1914 533.085 33.3033 535.083 36.2705H530.321C527.042 36.2705 523.423 34.5415 523.423 31.4175C523.423 29.8784 524.198 29.1914 525.937 29.1914ZM557.188 44.6904H538.906V39.0843H557.188V44.6904ZM517.813 39.0843H536.094V44.6904H517.813V39.0843ZM520.65 47.5029H536.094V65.8087H520.65V47.5029ZM554.386 65.8087H538.906V47.5029H554.386V65.8087Z" fill="white"/>
</g>
<path d="M653.848 49.4976C653.848 50.0238 653.421 50.4502 652.895 50.4502H644.557C644.031 50.4502 643.605 50.0238 643.605 49.4976C643.605 48.9714 644.031 48.545 644.557 48.545H652.895C653.421 48.545 653.848 48.9714 653.848 49.4976ZM650.914 52.5433H646.539C646.012 52.5433 645.586 52.9697 645.586 53.4959C645.586 54.0221 646.012 54.4485 646.539 54.4485H650.914C651.44 54.4485 651.867 54.0221 651.867 53.4959C651.867 52.9697 651.44 52.5433 650.914 52.5433ZM681.694 65.0241C682.08 65.3813 682.104 65.9839 681.747 66.3702C680.158 68.0881 677.555 67.9287 674.259 67.7272C670.244 67.4815 665.247 67.1761 659.954 70.0432C659.671 70.1963 659.329 70.1963 659.046 70.0432C656.875 68.867 654.753 68.2247 652.728 67.8932V72.2608C652.728 72.5982 652.55 72.9106 652.259 73.0817C651.968 73.2528 651.609 73.2574 651.314 73.0938L648.726 71.6582L646.139 73.0938C645.995 73.1736 645.836 73.2134 645.677 73.2134C645.51 73.2134 645.342 73.1695 645.194 73.0817C644.903 72.9105 644.724 72.5983 644.724 72.2608V67.7282C641.437 67.9295 638.839 68.0851 637.253 66.3702C636.896 65.984 636.92 65.3813 637.306 65.024C637.692 64.6671 638.295 64.6903 638.652 65.0765C639.628 66.1312 641.833 65.9962 644.625 65.8255C648.552 65.5852 653.892 65.2588 659.5 68.1289C665.108 65.2588 670.448 65.5852 674.375 65.8255C677.167 65.9962 679.373 66.1311 680.348 65.0765C680.705 64.6901 681.308 64.6669 681.694 65.0241ZM650.823 67.6637C649.356 67.5467 647.951 67.5644 646.629 67.6227V70.6428L648.264 69.7358C648.552 69.5764 648.901 69.5765 649.189 69.7358L650.823 70.6428V67.6637H650.823ZM665.152 45.4991C665.152 46.0253 665.578 46.4517 666.104 46.4517H674.442C674.969 46.4517 675.395 46.0253 675.395 45.4991C675.395 44.9729 674.969 44.5465 674.442 44.5465H666.104C665.578 44.5465 665.152 44.973 665.152 45.4991ZM682 32.7394V61.6947C682 61.9346 681.91 62.1656 681.747 62.3416C680.158 64.0592 677.555 63.9 674.259 63.6984C670.245 63.4531 665.249 63.1477 659.956 66.0129C659.946 66.0186 659.935 66.024 659.925 66.0292C659.789 66.0972 659.644 66.1294 659.501 66.1294C659.434 66.1294 659.231 66.1124 659.033 66.0071C653.724 63.1857 648.752 63.4532 644.741 63.6983C641.445 63.8999 638.842 64.059 637.253 62.3415C637.09 62.1656 637 61.9345 637 61.6946V32.7391C637 32.4034 637.177 32.0925 637.465 31.9207C637.754 31.7489 638.111 31.7418 638.406 31.9015C643.7 34.7687 648.697 34.463 652.712 34.2175C655.562 34.0433 657.894 33.9006 659.5 34.9762C661.106 33.9005 663.438 34.0433 666.288 34.2176C670.304 34.4635 675.3 34.7688 680.594 31.9017C680.889 31.7418 681.246 31.7491 681.535 31.9209C681.823 32.0926 682 32.4036 682 32.7394ZM658.547 36.6404C657.474 35.835 655.4 35.9617 652.828 36.1192C649.124 36.3455 644.163 36.6489 638.905 34.2744V61.2757C639.979 62.0809 642.053 61.9541 644.625 61.7969C645.795 61.7252 647.091 61.6459 648.483 61.6459C651.494 61.6459 654.951 62.0174 658.547 63.6416V36.6404ZM680.095 34.2746C674.837 36.6492 669.876 36.3457 666.172 36.1194C663.6 35.9622 661.526 35.8352 660.453 36.6406V63.6416C665.71 61.2671 670.672 61.5704 674.375 61.7969C676.947 61.9541 679.021 62.081 680.095 61.2757V34.2746H680.095ZM674.443 48.545H666.105C665.578 48.545 665.152 48.9714 665.152 49.4976C665.152 50.0238 665.578 50.4502 666.105 50.4502H674.443C674.969 50.4502 675.395 50.0238 675.395 49.4976C675.395 48.9714 674.969 48.545 674.443 48.545ZM652.895 44.5465H644.557C644.031 44.5465 643.605 44.9729 643.605 45.4991C643.605 46.0253 644.031 46.4517 644.557 46.4517H652.895C653.421 46.4517 653.848 46.0253 653.848 45.4991C653.848 44.9729 653.421 44.5465 652.895 44.5465ZM672.461 52.5433H668.086C667.56 52.5433 667.133 52.9697 667.133 53.4959C667.133 54.0221 667.56 54.4485 668.086 54.4485H672.461C672.987 54.4485 673.414 54.0221 673.414 53.4959C673.414 52.9697 672.987 52.5433 672.461 52.5433Z" fill="white"/>
<g clip-path="url(#clip2_522_61)">
<path d="M794.349 46.0414C793.587 43.1675 793.394 40.3946 793.771 37.8053L794.826 31.2036C794.918 30.6252 794.836 29.1285 793.008 29H770.036C768.41 29 768.117 30.6252 768.218 31.2036L769.274 37.8053C769.751 40.4864 769.558 43.1675 768.796 45.6558C768.218 47.382 768.034 49.2 768.218 51.018C768.87 57.1055 773.653 61.9994 779.594 62.8349V70.162H776.004C774.948 70.162 774.085 71.0251 774.085 72.081C774.085 73.1369 774.948 74 776.004 74H787.105C788.059 74 788.923 73.1369 788.923 72.081C788.923 71.0251 788.059 70.162 787.004 70.162H783.413V62.8441C789.896 61.9168 794.909 56.3067 794.826 49.5764C794.826 48.4287 794.634 47.1891 794.349 46.0414ZM790.713 32.8288L790.089 36.8963H772.965L772.258 32.8288H790.713ZM781.522 59.2448C781.237 59.2448 773.314 59.153 772.046 50.6323C771.955 49.2918 772.046 47.9512 772.432 46.7117C772.974 44.8294 773.295 42.8002 773.304 40.7343H789.749C789.767 42.7819 790.107 44.9212 790.713 47.0973C790.998 47.9604 791.099 48.8235 791.099 49.6774C791.099 54.9386 786.783 59.2448 781.522 59.2448Z" fill="white"/>
</g>
<defs>
<filter id="filter0_i_522_61" x="366" y="2" width="100" height="104" filterUnits="userSpaceOnUse" color-interpolation-filters="sRGB">
<feFlood flood-opacity="0" result="BackgroundImageFix"/>
<feBlend mode="normal" in="SourceGraphic" in2="BackgroundImageFix" result="shape"/>
<feColorMatrix in="SourceAlpha" type="matrix" values="0 0 0 0 0 0 0 0 0 0 0 0 0 0 0 0 0 0 127 0" result="hardAlpha"/>
<feOffset dy="4"/>
<feGaussianBlur stdDeviation="2"/>
<feComposite in2="hardAlpha" operator="arithmetic" k2="-1" k3="1"/>
<feColorMatrix type="matrix" values="0 0 0 0 0 0 0 0 0 0 0 0 0 0 0 0 0 0 0.25 0"/>
<feBlend mode="normal" in2="shape" result="effect1_innerShadow_522_61"/>
</filter>
<clipPath id="clip0_522_61">
<rect width="45" height="45" fill="white" transform="translate(393 29)"/>
</clipPath>
<clipPath id="clip1_522_61">
<rect width="45" height="45" fill="white" transform="translate(515 25)"/>
</clipPath>
<clipPath id="clip2_522_61">
<rect width="45" height="45" fill="white" transform="translate(759 29)"/>
</clipPath>
</defs>
</svg>
