<svg width="45" height="45" viewBox="0 0 45 45" fill="none" xmlns="http://www.w3.org/2000/svg">
<g clip-path="url(#clip0_230_1837)">
<path d="M35.349 17.0414C34.5869 14.1675 34.3941 11.3946 34.7706 8.80535L35.8265 2.20363C35.9183 1.62518 35.8356 0.128545 34.0085 0H11.0356C9.41043 0 9.11661 1.62518 9.21761 2.20363L10.2735 8.80535C10.751 11.4864 10.5582 14.1675 9.79606 16.6558C9.21761 18.382 9.03397 20.2 9.21761 22.018C9.86952 28.1055 14.6532 32.9994 20.5939 33.8349V41.162H17.0038C15.9479 41.162 15.0848 42.0251 15.0848 43.081C15.0848 44.1369 15.9479 45 17.0038 45H28.1046C29.0595 45 29.9226 44.1369 29.9226 43.081C29.9226 42.0251 29.0595 41.162 28.0036 41.162H24.4135V33.8441C30.8958 32.9168 35.9091 27.3067 35.8265 20.5764C35.8265 19.4287 35.6336 18.1891 35.349 17.0414ZM31.713 3.82881L31.0887 7.89635H13.9646L13.2576 3.82881H31.713ZM22.522 30.2448C22.2374 30.2448 14.3135 30.153 13.0464 21.6323C12.9546 20.2918 13.0464 18.9512 13.4321 17.7117C13.9738 15.8294 14.2951 13.8002 14.3043 11.7343H30.7489C30.7673 13.7819 31.107 15.9212 31.713 18.0973C31.9977 18.9604 32.0987 19.8235 32.0987 20.6774C32.0987 25.9386 27.7832 30.2448 22.522 30.2448Z" fill="white"/>
</g>
<defs>
<clipPath id="clip0_230_1837">
<rect width="45" height="45" fill="white"/>
</clipPath>
</defs>
</svg>
