<svg width="45" height="45" viewBox="0 0 45 45" fill="none" xmlns="http://www.w3.org/2000/svg">
<path d="M44.9999 3.90979H16.7968V32.1128H44.9999V3.90979ZM42.3265 29.4395H19.4701V6.58316H42.3265V29.4395Z" fill="white"/>
<path d="M30.8983 9.03113C25.9464 9.03113 21.918 13.0598 21.918 18.0114C21.918 22.9631 25.9465 26.9918 30.8983 26.9918C35.85 26.9918 39.8787 22.9632 39.8787 18.0114C39.8787 13.0597 35.85 9.03113 30.8983 9.03113ZM30.8983 24.3183C27.4205 24.3183 24.5913 21.489 24.5913 18.0114C24.5913 14.5337 27.4205 11.7044 30.8983 11.7044C34.376 11.7044 37.2053 14.5337 37.2053 18.0114C37.2053 21.489 34.3759 24.3183 30.8983 24.3183Z" fill="white"/>
<path d="M29.4108 15.6864H26.7374V20.3363H29.4108V15.6864Z" fill="white"/>
<path d="M35.0587 15.6864H32.3854V20.3363H35.0587V15.6864Z" fill="white"/>
<path d="M11.6347 38.4168C9.24926 38.4168 7.30854 36.4761 7.30854 34.0905V27.5285C9.86713 27.5117 11.9436 25.4257 11.9436 22.8633V15.8721H10.1323V11.4896H7.45901V15.8721H4.48471V11.4896H1.81134V15.8721H0V22.8633C0 25.4257 2.0765 27.5117 4.63518 27.5285V34.0905C4.63518 37.9502 7.77516 41.0901 11.6347 41.0901H45V38.4168H11.6347ZM4.66603 24.8559C3.5673 24.8559 2.67337 23.962 2.67337 22.8633V18.5455H9.27026V22.8633C9.27026 23.9619 8.37642 24.8559 7.27761 24.8559H4.66603Z" fill="white"/>
</svg>
