<svg width="45" height="45" viewBox="0 0 45 45" fill="none" xmlns="http://www.w3.org/2000/svg">
<g clip-path="url(#clip0_230_1598)">
<path d="M41.4249 4.57308C41.2042 3.3781 40.0552 2.66112 38.9338 3.03799C38.75 3.12991 33.8597 4.84884 29.1166 7.46859C26.8094 3.99397 24.493 1.23634 23.9874 0.648044C23.2245 -0.216015 21.7813 -0.216015 21.1103 0.648044C20.6047 1.19957 18.2423 4.00317 15.9075 7.55132C11.1368 4.97753 6.24663 3.23103 5.97086 3.04719C4.89539 2.66112 3.66364 3.29537 3.4798 4.57308C3.28677 6.20008 1.18177 20.1905 4.72993 26.1286C7.41403 30.7246 11.817 33.4087 16.2293 33.4087C16.9554 33.4087 18.5549 33.2249 19.4649 32.9216C19.851 33.0411 20.237 33.1514 20.6415 33.2249V43.088C20.6415 44.1451 21.5055 45 22.5534 45C23.6105 45 24.4654 44.1359 24.4654 43.088V33.2249C24.8974 33.1422 25.3203 33.0319 25.7339 32.894C26.8002 33.3076 28.0963 33.4087 28.8776 33.4087C33.1887 33.4087 37.7848 30.7246 40.2758 26.2205C43.824 20.1905 41.7282 6.19089 41.4249 4.57308ZM22.5534 4.75692C25.6236 8.68195 30.5046 15.7783 30.5046 19.7952C30.5046 25.2553 26.9565 29.6676 22.5534 29.6676C18.1504 29.6676 14.6023 25.2645 14.6023 19.7952C14.6023 15.7783 19.4833 8.69114 22.5534 4.75692ZM7.7909 24.3085C5.78702 20.7604 6.26501 12.3312 6.83492 7.44102C8.67335 8.13962 11.3115 9.31621 13.9404 10.7594C12.2123 13.8387 10.8611 17.1203 10.8611 19.8044C10.8611 23.5824 12.2123 27.0202 14.3725 29.4929C11.8538 28.8862 9.37195 27.0018 7.7909 24.3085ZM37.1138 24.3085C35.5603 26.9191 33.2347 28.73 30.8263 29.3826C32.9313 26.9191 34.2366 23.5272 34.2366 19.8044C34.2366 17.0927 32.8486 13.7836 31.0929 10.6766C33.6207 9.27944 36.2681 8.13043 38.0697 7.44102C38.6488 12.4231 39.1268 20.8523 37.1138 24.3085Z" fill="white"/>
</g>
<defs>
<clipPath id="clip0_230_1598">
<rect width="45" height="45" fill="white"/>
</clipPath>
</defs>
</svg>
