<svg width="45" height="45" viewBox="0 0 45 45" fill="none" xmlns="http://www.w3.org/2000/svg">
<g clip-path="url(#clip0_229_1381)">
<path d="M44.5846 20.4043L23.4079 1.46752C23.3709 1.4305 23.3339 1.40273 23.2876 1.37497C22.8248 0.930702 22.0844 0.912191 21.5938 1.3472L0.417201 20.284C-0.101109 20.7468 -0.138131 21.5335 0.31539 22.0518C0.565289 22.3295 0.907744 22.4683 1.2502 22.4683C1.54637 22.4683 1.84255 22.3665 2.0832 22.1536L5.89647 18.7383V19.4047V29.2896V40.822C5.89647 42.5528 7.30331 43.9689 9.04335 43.9689C9.07112 43.9689 9.08963 43.9689 9.1174 43.9689C9.14516 43.9689 9.16367 43.9689 9.19144 43.9689H15.7258C17.3548 43.9689 18.6784 42.6454 18.6784 41.0164V29.7894C18.6784 29.5395 18.882 29.3359 19.1319 29.3359H25.8792C26.1291 29.3359 26.3327 29.5395 26.3327 29.7894V41.0164C26.3327 42.6454 27.6562 43.9689 29.2852 43.9689H35.9677C37.7262 43.9689 39.1146 42.2381 39.1146 40.0261V29.7339V26.587V18.8587L42.9278 22.2739C43.1685 22.4868 43.4647 22.5886 43.7608 22.5886C44.1033 22.5886 44.4457 22.4498 44.6956 22.1721C45.1399 21.6538 45.0936 20.8671 44.5846 20.4043ZM36.6063 26.5778V29.7246V40.0075C36.6063 40.9053 36.162 41.4514 35.9584 41.4514H29.2759C29.026 41.4514 28.8224 41.2478 28.8224 40.9979V29.7894C28.8224 28.1605 27.4989 26.8369 25.8699 26.8369H19.1226C17.4936 26.8369 16.1701 28.1605 16.1701 29.7894V41.0164C16.1701 41.2663 15.9665 41.4699 15.7166 41.4699H9.18218C9.15442 41.4699 9.13591 41.4699 9.10814 41.4699C9.08037 41.4699 9.06186 41.4699 9.0341 41.4699C8.68239 41.4699 8.38621 41.183 8.38621 40.822V29.2804V19.3955V16.4985L22.4361 3.948L36.6063 16.6188V26.5778Z" fill="white"/>
</g>
<defs>
<clipPath id="clip0_229_1381">
<rect width="45" height="45" fill="white"/>
</clipPath>
</defs>
</svg>
