<svg width="45" height="45" viewBox="0 0 45 45" fill="none" xmlns="http://www.w3.org/2000/svg">
<path d="M35.2647 15.7071L29.6553 9.06446H31.2387C31.8441 9.06446 32.3347 8.57376 32.3347 7.96846V1.096C32.3347 0.490607 31.8441 0 31.2387 0H13.7617C13.1563 0 12.6657 0.490607 12.6657 1.096V7.96837C12.6657 8.57368 13.1563 9.06437 13.7617 9.06437H15.3448L9.73547 15.707C9.56848 15.9048 9.47681 16.1552 9.47681 16.4142C9.47681 17.6996 9.47681 42.9959 9.47681 43.904C9.47681 44.5093 9.9675 45 10.5728 45H34.4271C35.0325 45 35.5231 44.5093 35.5231 43.904C35.5231 42.4475 35.5231 17.4537 35.5231 16.4142C35.5234 16.1554 35.4317 15.9049 35.2647 15.7071ZM14.8577 6.87237V2.192H30.1427V6.87237C27.1983 6.87237 18.1835 6.87237 14.8577 6.87237ZM33.3314 42.8082H11.6691V37.5627H33.3314V42.8082ZM33.3314 35.3707H11.6691V22.8578H33.3314V35.3707ZM33.3314 20.6658H11.6691V16.815L18.2141 9.06437H26.7863L33.3314 16.815V20.6658Z" fill="white"/>
<path d="M18.8843 30.547H20.6525C20.8818 30.547 21.0677 30.7329 21.0677 30.9622V32.7304C21.0677 32.9597 21.2536 33.1456 21.4829 33.1456H23.5177C23.747 33.1456 23.9329 32.9597 23.9329 32.7304V30.9622C23.9329 30.7329 24.1187 30.547 24.3481 30.547H26.1163C26.3456 30.547 26.5315 30.3611 26.5315 30.1318V28.097C26.5315 27.8677 26.3456 27.6818 26.1163 27.6818H24.3481C24.1188 27.6818 23.9329 27.4959 23.9329 27.2666V25.4984C23.9329 25.2691 23.747 25.0833 23.5177 25.0833H21.4829C21.2536 25.0833 21.0677 25.2691 21.0677 25.4984V27.2666C21.0677 27.4959 20.8818 27.6818 20.6525 27.6818H18.8843C18.655 27.6818 18.4691 27.8677 18.4691 28.097V30.1318C18.4691 30.3611 18.655 30.547 18.8843 30.547Z" fill="white"/>
</svg>
