<svg width="45" height="45" viewBox="0 0 45 45" fill="none" xmlns="http://www.w3.org/2000/svg">
<path d="M32.5593 16.4958C32.5593 15.1901 33.6167 14.1327 34.9224 14.1327C36.228 14.1327 37.2855 15.1901 37.2855 16.4958C37.2855 17.8014 36.228 18.8589 34.9224 18.8589C33.6167 18.8589 32.5593 17.8014 32.5593 16.4958ZM10.0776 18.8589C11.3833 18.8589 12.4407 17.8014 12.4407 16.4958C12.4407 15.1901 11.3833 14.1327 10.0776 14.1327C8.77197 14.1327 7.71455 15.1901 7.71455 16.4958C7.70535 17.8014 8.77197 18.8589 10.0776 18.8589ZM0 26.5274V6.46408C0 4.31247 1.74704 2.56543 3.89865 2.56543H41.0922C43.2438 2.56543 44.9908 4.31247 44.9908 6.46408V26.5274C44.9908 28.679 43.2438 30.4261 41.0922 30.4261H3.89865C1.75623 30.4261 0 28.679 0 26.5274ZM3.32857 22.4817C3.54924 22.4449 3.78831 22.4173 4.01819 22.4173C6.19738 22.4173 7.96281 24.1827 7.96281 26.3619C7.96281 26.6102 7.93523 26.8492 7.89845 27.0883H36.7705C36.7521 26.932 36.743 26.7665 36.743 26.601C36.743 24.4218 38.5084 22.6564 40.6876 22.6564C41.0278 22.6564 41.3496 22.7023 41.6622 22.7759V10.6846C41.3496 10.7673 41.0278 10.8041 40.6876 10.8041C38.5084 10.8041 36.743 9.03866 36.743 6.85946C36.743 6.52845 36.7889 6.20662 36.8625 5.894H7.89845C7.94442 6.13306 7.96281 6.37213 7.96281 6.6204C7.96281 8.79959 6.19738 10.565 4.01819 10.565C3.77912 10.565 3.54924 10.5466 3.32857 10.5007V22.4817ZM43.3357 33.065H1.72865C0.809154 33.065 0.0643645 33.8098 0.0643645 34.7293C0.0643645 35.6488 0.809154 36.3936 1.72865 36.3936H43.3357C44.2552 36.3936 45 35.6488 45 34.7293C45 33.8098 44.2552 33.065 43.3357 33.065ZM43.3357 39.1061H1.72865C0.809154 39.1061 0.0643645 39.8509 0.0643645 40.7704C0.0643645 41.6899 0.809154 42.4347 1.72865 42.4347H43.3357C44.2552 42.4347 45 41.6899 45 40.7704C45 39.8509 44.2552 39.1061 43.3357 39.1061ZM13.9579 16.4958C13.9579 11.7879 17.7922 7.95366 22.5 7.95366C27.2078 7.95366 31.0421 11.7879 31.0421 16.4958C31.0421 21.2036 27.2078 25.0378 22.5 25.0378C17.7922 25.0378 13.9579 21.2036 13.9579 16.4958ZM18.1324 16.7808L19.7323 18.3899L21.3874 20.0542L23.0517 18.3991L26.8676 14.6016L25.2125 12.9373L21.3966 16.7348L19.7967 15.1257L18.1324 16.7808Z" fill="white"/>
</svg>
