<svg width="45" height="45" viewBox="0 0 45 45" fill="none" xmlns="http://www.w3.org/2000/svg">
<path d="M41.0294 5.29409H35.0735V1.98527C35.0735 0.888926 34.1846 0 33.0882 0H3.9705C2.87416 0 1.98523 0.888926 1.98523 1.98527V12.5735C1.98523 13.67 2.87407 14.5588 3.9705 14.5588H33.0881C34.1846 14.5588 35.0734 13.67 35.0734 12.5735V9.26473H39.044V17.4257L18.2974 19.8664C17.2974 19.9841 16.544 20.8316 16.544 21.8383V27.7942H14.5587C13.4623 27.7942 12.5734 28.6831 12.5734 29.7795V43.0147C12.5734 44.1112 13.4623 45 14.5587 45H22.5C23.5964 45 24.4852 44.1111 24.4852 43.0147V29.7795C24.4852 28.683 23.5963 27.7942 22.5 27.7942H20.5147V23.6037L41.2614 21.163C42.2612 21.0453 43.0147 20.1979 43.0147 19.1912V7.27945C43.0147 6.18302 42.1258 5.29409 41.0294 5.29409ZM31.1029 10.5883H5.95586V3.97055H31.103V10.5883H31.1029ZM20.5147 41.0295H16.5441V31.7647H20.5147V41.0295Z" fill="white"/>
</svg>
