<svg width="45" height="45" viewBox="0 0 45 45" fill="none" xmlns="http://www.w3.org/2000/svg">
<g clip-path="url(#clip0_230_1818)">
<path d="M45 14.0843C45 12.5311 43.7408 11.2718 42.1876 11.2718H37.3867C38.6291 10.0463 39.4243 8.4397 39.4243 6.46106C39.4243 4.02474 38.0251 1.37817 34.0975 1.37817C28.9295 1.37817 24.6123 6.88083 22.5838 9.96544C20.5539 6.88153 16.1045 1.37888 10.9372 1.37888C7.00958 1.37888 5.61036 4.02544 5.61036 6.46177C5.61036 8.43966 6.42739 10.047 7.69512 11.2725H2.81262C1.25942 11.2725 0.00012207 12.5318 0.00012207 14.085V22.5036H2.83723V40.8094C2.83723 42.3626 4.09648 43.6219 5.64973 43.6219H39.3857C40.9388 43.6219 42.1982 42.3626 42.1982 40.8094V22.5029H45.0001V14.0843H45ZM34.0975 4.19138C35.8363 4.19138 36.6118 4.92197 36.6118 6.46181C36.6118 9.5858 33.125 11.2711 29.8457 11.2711H25.0848C27.083 8.30325 30.6001 4.19138 34.0975 4.19138ZM10.9372 4.19142C14.4352 4.19142 18.0851 8.3033 20.0834 11.2705H15.3211C12.0418 11.2705 8.42277 9.5415 8.42277 6.41751C8.42277 4.87837 9.19832 4.19142 10.9372 4.19142ZM42.1876 19.6904H23.9063V14.0843H42.1876V19.6904ZM2.81258 14.0843H21.0938V19.6904H2.81258V14.0843ZM5.64969 22.5029H21.0938V40.8087H5.64969V22.5029ZM39.3863 40.8087H23.9063V22.5029H39.3863V40.8087Z" fill="white"/>
</g>
<defs>
<clipPath id="clip0_230_1818">
<rect width="45" height="45" fill="white"/>
</clipPath>
</defs>
</svg>
