<svg width="45" height="45" viewBox="0 0 45 45" fill="none" xmlns="http://www.w3.org/2000/svg">
<g clip-path="url(#clip0_230_1694)">
<path d="M42.3921 6.8478L41.6347 5.48462L40.291 6.27634C40.1047 6.38611 35.683 9.01914 31.7752 13.7084C29.5058 16.4316 27.8284 19.1535 26.3482 21.5552C24.509 24.5396 22.9206 27.1171 20.827 28.6631C19.9347 29.3221 19.1124 29.5715 18.3136 29.4256C16.7873 29.1468 15.7281 27.531 15.722 27.5217L14.8905 26.2015L0.962002 35.487C0.165449 36.018 -0.183213 36.9903 0.0942578 37.9065C0.371641 38.8227 1.20115 39.4382 2.15837 39.4382H24.1111C26.9513 39.4382 29.5442 37.7672 30.7166 35.181C31.7322 32.9411 32.7508 30.8815 33.7445 29.0594C35.4598 25.9142 37.1922 24.8082 38.3451 24.4338V39.5153H41.386V23.6823C42.107 23.0937 43.3698 21.8465 44.2045 19.8089C46.0946 15.195 44.2621 10.214 42.3921 6.8478ZM41.4501 18.506C40.9119 19.9076 40.0624 20.7999 39.581 21.2226C37.9529 21.1814 34.2335 21.8116 31.0748 27.6036C30.0456 29.4909 28.9932 31.6178 27.9471 33.9255C27.2663 35.4271 25.7607 36.3973 24.1111 36.3973H5.07854L14.1321 30.3617C14.911 31.1627 16.1304 32.1084 17.7363 32.4111C19.393 32.7233 21.0409 32.2854 22.6334 31.1091C25.2005 29.2133 26.9319 26.4038 28.9369 23.1505C30.3637 20.8354 31.9807 18.2115 34.1113 15.655C36.4198 12.8847 38.9698 10.8725 40.4853 9.7953C42.0341 13.1223 42.3697 16.1102 41.4501 18.506Z" fill="white"/>
</g>
<defs>
<clipPath id="clip0_230_1694">
<rect width="45" height="45" fill="white"/>
</clipPath>
</defs>
</svg>
