<svg width="45" height="45" viewBox="0 0 45 45" fill="none" xmlns="http://www.w3.org/2000/svg">
<g clip-path="url(#clip0_230_1634)">
<path d="M40.8673 6.42862H25.8257L29.9027 2.35162C30.4407 1.81364 30.4407 0.941464 29.9027 0.403485C29.3648 -0.134495 28.4925 -0.134495 27.9546 0.403485L22.5 5.85804L17.0455 0.403577C16.5077 -0.134403 15.6354 -0.134403 15.0974 0.403577C14.5594 0.941556 14.5594 1.81373 15.0974 2.35171L19.1743 6.42862H4.13265C1.85391 6.42862 0 8.28253 0 10.5613V35.3572C0 37.6359 1.85391 39.4898 4.13265 39.4898H21.1224V42.2449H15.1531C14.3923 42.2449 13.7755 42.8617 13.7755 43.6225C13.7755 44.3833 14.3923 45 15.1531 45H29.8469C30.6077 45 31.2245 44.3833 31.2245 43.6225C31.2245 42.8617 30.6077 42.2449 29.8469 42.2449H23.8776V39.4898H40.8673C43.1461 39.4898 45 37.6359 45 35.3572V10.5613C45 8.28253 43.1462 6.42862 40.8673 6.42862ZM42.2449 35.3572C42.2449 36.1168 41.6269 36.7347 40.8673 36.7347H4.13265C3.37307 36.7347 2.7551 36.1168 2.7551 35.3572V33.9796H42.2449V35.3572ZM42.2449 31.2245H2.7551V10.5613C2.7551 9.80169 3.37307 9.18372 4.13265 9.18372H40.8673C41.6269 9.18372 42.2449 9.80169 42.2449 10.5613V31.2245Z" fill="white"/>
</g>
<defs>
<clipPath id="clip0_230_1634">
<rect width="45" height="45" fill="white"/>
</clipPath>
</defs>
</svg>
