<svg width="45" height="45" viewBox="0 0 45 45" fill="none" xmlns="http://www.w3.org/2000/svg">
<path d="M39.5814 43.4277C42.4366 43.4277 44.7512 41.1131 44.7512 38.258C44.7512 35.4028 42.4366 33.0883 39.5814 33.0883C36.7263 33.0883 34.4117 35.4028 34.4117 38.258C34.4117 41.1131 36.7263 43.4277 39.5814 43.4277Z" fill="white"/>
<path fill-rule="evenodd" clip-rule="evenodd" d="M41.7018 4.67209C36.4235 -0.616729 26.5712 0.63533 19.7524 7.46474C15.6044 11.6047 13.5291 16.875 13.7171 21.5497C13.4868 21.7589 13.3597 22.0739 13.4365 22.4153C14.6594 27.9689 9.78883 33.6812 9.73589 33.7421C9.67236 33.8162 9.62471 33.9062 9.59295 33.9962L3.29295 40.2962C2.53059 41.0586 2.50148 42.2656 3.22942 42.9962L3.28765 43.0492C4.00765 43.7771 5.22001 43.7506 5.97971 42.983L12.4782 36.4924C12.9203 36.1562 19.1885 31.5397 23.7018 32.8236C24.0009 32.9109 24.2921 32.8315 24.5118 32.6594C29.2685 32.9533 34.6791 30.8674 38.9171 26.6242C45.7359 19.8027 46.9853 9.95298 41.7018 4.67209ZM19.125 27.3706C18.4474 26.6956 17.9285 25.9147 17.5262 25.0703L21.1129 21.4809L24.8956 25.2662L21.2691 28.8953C20.4829 28.5009 19.755 28.0033 19.125 27.3706ZM22.9871 19.6121L26.73 15.8639L30.5153 19.6492L26.7671 23.3921L22.9871 19.6121ZM26.7644 12.1633L22.9024 8.30121C24.3265 7.04915 25.8591 6.05915 27.4262 5.33386L30.5127 8.41768L26.7644 12.1633ZM32.3444 10.2494L36.1297 14.0347L32.3841 17.7777L28.6015 13.9977L32.3444 10.2494ZM21.0309 10.1674L24.8956 14.0347L21.15 17.7777L18.0662 14.6912C18.7941 13.1294 19.7815 11.5942 21.0309 10.1674ZM32.3444 21.4809L36.3256 25.4594C34.9015 26.7115 33.3662 27.6989 31.8018 28.4268L28.6015 25.2265L32.3444 21.4809ZM34.2159 19.6121L37.9615 15.8639L41.1591 19.0642C40.4365 20.6312 39.4465 22.1665 38.1944 23.588L34.2159 19.6121ZM42.1571 16.3244L39.8303 13.9977L42.4985 11.3268C42.7315 12.8965 42.6071 14.6039 42.1571 16.3244ZM40.1029 6.39004C40.7329 7.02268 41.2306 7.75062 41.6224 8.5368L37.9959 12.1633L34.2132 8.38062L37.8 4.79651C38.6471 5.19357 39.4279 5.71504 40.1029 6.39004ZM34.9544 3.97327L32.3815 6.54886L30.1685 4.33592C31.8177 3.90709 33.4403 3.78268 34.9544 3.97327ZM17.0709 17.4362L19.2785 19.6492L16.7029 22.2247C16.515 20.708 16.6368 19.0853 17.0709 17.4362ZM12.9653 33.9142C12.9044 33.8268 12.87 33.7262 12.7959 33.6494L12.7403 33.5939C12.6635 33.5171 12.5656 33.4853 12.4782 33.4244C13.4391 31.9871 14.6885 29.7371 15.2603 27.1377C15.7341 27.9821 16.3138 28.7709 17.0206 29.475C17.6824 30.1394 18.4129 30.7006 19.2071 31.1612C16.7347 31.7594 14.445 32.9877 12.9653 33.9142ZM24.0618 29.7662L26.73 27.0953L29.0568 29.4221C27.3335 29.8747 25.6288 29.9992 24.0618 29.7662Z" fill="white"/>
</svg>
