<svg width="45" height="45" viewBox="0 0 45 45" fill="none" xmlns="http://www.w3.org/2000/svg">
<g clip-path="url(#clip0_230_1552)">
<path d="M40.3775 29.819V28.5028C40.3775 27.3341 39.1118 26.3582 38.0712 25.6269C37.9305 25.5186 37.7773 25.4216 37.6493 25.3273L28.4381 18.9034C25.3006 16.7138 25.3006 15.1978 25.3006 13.0546V4.9839C25.3006 3.43698 24.049 0 22.5063 0C20.9636 0 19.7148 3.4412 19.7148 4.9839V13.0546C19.7148 15.1978 19.7149 16.711 16.576 18.9034L7.36759 25.3273C7.22696 25.4216 7.0863 25.5186 6.94567 25.6269C5.90642 26.3582 4.64075 27.3341 4.64075 28.5028V29.819C4.64075 29.9597 4.64075 30.1003 4.64075 30.2325C4.65481 30.6178 4.7814 30.8794 5.45642 30.6459L19.7219 25.7535V35.5005C19.7219 37.7182 19.6459 38.0712 18.3057 39.1568L17.6968 39.6448V39.6519L15.5592 41.3577C15.5184 41.39 15.4763 41.4196 15.4397 41.4505C15.2864 41.5535 15.1641 41.6962 15.0858 41.8635C15.0075 42.0307 14.9762 42.2161 14.9953 42.3998V44.2195C14.9953 44.9634 14.9953 45.1533 15.5887 44.8889L22.5218 41.8204L29.4605 44.8889C30.0553 45.1533 30.0553 44.9634 30.0553 44.2195V42.4124C30.0743 42.2283 30.0425 42.0425 29.9634 41.8752C29.8844 41.7079 29.761 41.5654 29.6067 41.4632L29.49 41.3704L27.351 39.6645L27.344 39.6575L26.7337 39.1695C25.3949 38.0768 25.3189 37.7238 25.3189 35.5131V25.7647L39.5858 30.6572C40.2692 30.8907 40.3859 30.6291 40.4 30.2438C40.3845 30.1003 40.3775 29.9611 40.3775 29.819Z" fill="white"/>
</g>
<defs>
<clipPath id="clip0_230_1552">
<rect width="45" height="45" fill="white"/>
</clipPath>
</defs>
</svg>
