<svg width="45" height="45" viewBox="0 0 45 45" fill="none" xmlns="http://www.w3.org/2000/svg">
<path d="M44.2133 9.23713L28.1646 4.58809C28.0658 4.55939 27.9639 4.54504 27.8613 4.54504H17.1392C17.0365 4.54504 16.9343 4.55939 16.8359 4.58809L0.786766 9.23713C0.320963 9.37231 0 9.7987 0 10.2841V19.5828C0 19.9187 0.154885 20.2365 0.420553 20.4429C0.685646 20.6495 1.03053 20.7229 1.35685 20.6399L8.43143 18.8557V39.3648C8.43143 39.9669 8.91962 40.4549 9.52165 40.4549H35.4789C36.081 40.4549 36.5691 39.9669 36.5691 39.3648V18.8556L43.6431 20.6398C43.9693 20.7228 44.3147 20.6494 44.5799 20.4428C44.8451 20.2363 45 19.9186 45 19.5827V10.284C45 9.7986 44.6795 9.37231 44.2133 9.23713ZM27.0964 6.7252C26.7796 8.98161 24.8421 10.7249 22.5 10.7249C20.1579 10.7249 18.2205 8.98161 17.9037 6.7252H27.0964ZM42.8198 18.1833L35.7457 16.3992C35.4199 16.3161 35.0739 16.3901 34.8089 16.5961C34.5438 16.8027 34.3888 17.1204 34.3888 17.4563V38.2748H10.6118V17.4562C10.6118 17.1203 10.4569 16.8025 10.1912 16.596C9.92613 16.3901 9.58125 16.316 9.25493 16.3991L2.18025 18.1833V11.1032L15.768 7.1669C16.2924 10.4143 19.1071 12.905 22.5 12.905C25.8933 12.905 28.7074 10.4143 29.2319 7.1669L42.8198 11.1033V18.1833Z" fill="white"/>
</svg>
