<svg width="81" height="71" viewBox="0 0 81 71" fill="none" xmlns="http://www.w3.org/2000/svg">
<path d="M37.7086 2.29836V8.56367C35.881 7.64459 34.0054 6.93046 32.0818 6.4213C30.1582 5.91645 28.061 5.66402 25.7902 5.66402C23.1904 5.66402 20.8784 6.09983 18.8543 6.97146C16.8302 7.84739 15.1237 9.08147 13.7347 10.6737C12.3502 12.2659 11.2879 14.1818 10.5477 16.4212C9.81212 18.665 9.44431 21.1439 9.44431 23.858C9.44431 26.6887 9.74359 29.2259 10.3421 31.4696C10.9453 33.7091 11.8842 35.6077 13.159 37.1654C14.4292 38.7231 16.0581 39.914 18.0456 40.7382C20.0331 41.5666 22.4136 41.9809 25.1871 41.9809C25.6623 41.9809 26.174 41.9571 26.7223 41.9097C27.2751 41.8622 27.8257 41.7975 28.374 41.7155C28.9223 41.6335 29.4523 41.5321 29.964 41.4113C30.4758 41.2948 30.9327 41.1653 31.3348 41.0229V26.2982H21.3285V21.0943H37.9279V44.7381C36.9045 45.1869 35.8239 45.5882 34.6862 45.942C33.5531 46.2958 32.3925 46.5914 31.2045 46.8287C30.0166 47.066 28.8355 47.243 27.6612 47.3595C26.487 47.476 25.3493 47.5342 24.2481 47.5342C20.899 47.5342 17.8834 47.0402 15.2013 46.052C12.5147 45.0596 10.2279 43.5903 8.34088 41.6443C6.45385 39.6983 5.00317 37.2732 3.98883 34.3693C2.97907 31.4653 2.47418 28.1018 2.47418 24.2788C2.47418 20.4816 3.03618 17.0792 4.16017 14.0717C5.28416 11.0599 6.86507 8.50974 8.90288 6.4213C10.9407 4.33286 13.3897 2.74064 16.25 1.64464C19.1102 0.54864 22.2651 0.000640869 25.7148 0.000640869C27.9125 0.000640869 30.0052 0.184026 31.9927 0.550798C33.9757 0.913254 35.881 1.49577 37.7086 2.29836Z" fill="white"/>
<path d="M80.2833 33.0618C80.2833 35.2797 79.8264 37.243 78.9126 38.9517C78.0033 40.6648 76.7057 42.1103 75.0197 43.2883C73.3337 44.4706 71.2959 45.3681 68.9063 45.9808C66.5212 46.5935 63.8666 46.8999 60.9424 46.8999H48.1261V0.634888H62.1417C73.0618 0.634888 78.5219 4.38674 78.5219 11.8905C78.5219 14.3931 77.8914 16.542 76.6303 18.337C75.3692 20.1277 73.3131 21.461 70.462 22.337C71.7871 22.57 73.0436 22.9713 74.2315 23.5408C75.4195 24.1061 76.4635 24.8375 77.3636 25.735C78.2592 26.6282 78.9697 27.6897 79.4951 28.9194C80.0205 30.1449 80.2833 31.5257 80.2833 33.0618ZM71.586 12.7448C71.586 11.7998 71.4375 10.9088 71.1405 10.0717C70.839 9.2346 70.3135 8.514 69.5642 7.90991C68.8149 7.31013 67.8028 6.83333 66.5281 6.4795C65.2533 6.12567 63.6427 5.94876 61.6963 5.94876H54.7947V20.4211H61.4701C62.9916 20.4211 64.3715 20.2679 65.6097 19.9616C66.8479 19.6552 67.9102 19.1849 68.7966 18.5506C69.683 17.912 70.3707 17.1137 70.8596 16.1558C71.3439 15.2022 71.586 14.0652 71.586 12.7448ZM73.1966 33.2754C73.1966 32.0931 72.9362 31.0295 72.4153 30.0845C71.8899 29.1438 71.1268 28.3477 70.1262 27.6961C69.1256 27.0489 67.9079 26.5484 66.4732 26.1945C65.034 25.8407 63.4165 25.6638 61.6209 25.6638H54.7947V41.5925H61.8402C65.6645 41.5925 68.5133 40.9193 70.3866 39.5731C72.26 38.2268 73.1966 36.1276 73.1966 33.2754Z" fill="white"/>
<path d="M13.1215 69.878L9.43549 54.7162H11.8928L14.0061 65.5389L16.9942 54.7162H18.6259L21.614 65.5389L23.7273 54.7162H26.1846L22.4986 69.878H20.7195L17.8101 59.4044L14.9006 69.878H13.1215Z" fill="white"/>
<path d="M35.4635 69.878V60.2647C35.4635 59.2672 35.2571 58.4942 34.8443 57.9456C34.4249 57.397 33.8319 57.1226 33.0652 57.1226C32.5868 57.1226 32.1183 57.2141 31.6596 57.397C31.2009 57.5798 30.7979 57.8375 30.4506 58.17L28.7304 56.6863C29.1826 55.9963 29.7789 55.456 30.5194 55.0653C31.2599 54.683 32.0855 54.4918 32.9964 54.4918C33.9858 54.4918 34.8344 54.7121 35.5422 55.1526C36.2433 55.6015 36.7807 56.2457 37.1542 57.0852C37.5211 57.9248 37.7046 58.9389 37.7046 60.1276V69.878H35.4635ZM32.5442 70.1024C31.0698 70.1024 29.9657 69.7117 29.2317 68.9303C28.5044 68.1573 28.1407 66.9811 28.1407 65.4018C28.1407 63.9055 28.4749 62.7834 29.1433 62.0352C29.8117 61.2788 30.8208 60.9006 32.1707 60.9006H35.5716L35.7289 63.307H32.1805C31.5711 63.307 31.1124 63.4774 30.8044 63.8182C30.503 64.1674 30.3523 64.6952 30.3523 65.4018C30.3523 66.1748 30.5554 66.7484 30.9617 67.1224C31.3614 67.4881 31.9741 67.671 32.7998 67.671C33.6975 67.671 34.3659 67.5505 34.805 67.3094C35.244 67.0601 35.4635 66.6777 35.4635 66.1623L35.7093 68.2945C35.4996 68.7101 35.244 69.0467 34.9426 69.3044C34.6411 69.5704 34.2906 69.7699 33.8908 69.9029C33.4911 70.0359 33.0422 70.1024 32.5442 70.1024Z" fill="white"/>
<path d="M43.6218 48.6316V65.9628C43.6218 66.3286 43.6841 66.6112 43.8086 66.8107C43.9397 67.0185 44.1199 67.1224 44.3492 67.1224H45.4501V69.9528H44.074C43.1828 69.9528 42.4948 69.5995 42.0098 68.8929C41.5184 68.1947 41.2726 67.2097 41.2726 65.9379V48.6316H43.6218Z" fill="white"/>
<path d="M50.4532 48.6316V65.9628C50.4532 66.3286 50.5155 66.6112 50.64 66.8107C50.771 67.0185 50.9512 67.1224 51.1806 67.1224H52.2815V69.9528H50.9054C50.0142 69.9528 49.3228 69.5995 48.8314 68.8929C48.3465 68.1947 48.104 67.2097 48.104 65.9379V48.6316H50.4532Z" fill="white"/>
<path d="M59.8303 70.1024C58.7229 70.1024 57.7793 69.8364 56.9995 69.3044C56.2131 68.7807 55.6136 68.0118 55.2007 66.9977C54.7945 65.9753 54.5913 64.7451 54.5913 63.307V61.5988C54.5913 60.0943 54.7879 58.8101 55.1811 57.7461C55.5742 56.6904 56.1476 55.8841 56.9012 55.3272C57.6548 54.7703 58.5624 54.4918 59.6239 54.4918C60.62 54.4918 61.4718 54.8077 62.1795 55.4394C62.8872 56.0711 63.4279 56.9855 63.8014 58.1825C64.1749 59.3878 64.3616 60.8258 64.3616 62.4966V63.4941H56.2918V61.1001H62.1206C62.055 59.8616 61.8027 58.8973 61.3637 58.2074C60.9312 57.5258 60.3513 57.185 59.6239 57.185C58.7327 57.185 58.0447 57.5549 57.5598 58.2947C57.0683 59.0345 56.8226 60.0818 56.8226 61.4368V63.3569C56.8226 64.6204 57.0847 65.5846 57.6089 66.2496C58.1331 66.9229 58.8736 67.2596 59.8303 67.2596C60.3087 67.2596 60.7805 67.139 61.2458 66.898C61.7176 66.6569 62.1369 66.3161 62.5039 65.8756L64.0471 67.8331C63.4573 68.5563 62.7922 69.1132 62.0518 69.5039C61.3178 69.9029 60.5774 70.1024 59.8303 70.1024Z" fill="white"/>
<path d="M70.6918 69.9528C69.7219 69.9528 69.0142 69.612 68.5686 68.9303C68.1165 68.257 67.8904 67.2596 67.8904 65.9379V50.3024H70.2396V65.9628C70.2396 66.3286 70.2986 66.6112 70.4165 66.8107C70.5345 67.0185 70.7049 67.1224 70.9277 67.1224H72.0482V69.9528H70.6918ZM66.6617 57.397V54.7162H72.0482V57.397H66.6617Z" fill="white"/>
</svg>
