<svg width="45" height="45" viewBox="0 0 45 45" fill="none" xmlns="http://www.w3.org/2000/svg">
<path d="M33.6467 26.7694C32.9737 24.3297 31.5188 22.1782 29.5053 20.6449C27.4918 19.1116 25.0308 18.2812 22.4999 18.2812C19.9691 18.2813 17.5081 19.1116 15.4946 20.6449C13.4811 22.1782 12.0262 24.3297 11.3532 26.7694L9.74939 32.5834C9.46142 33.6273 9.41846 34.7236 9.62385 35.7868C9.82923 36.85 10.2774 37.8514 10.9335 38.7129C11.5895 39.5745 12.4357 40.2728 13.406 40.7536C14.3763 41.2343 15.4445 41.4844 16.5274 41.4844H28.4725C29.5553 41.4844 30.6236 41.2343 31.5939 40.7536C32.5642 40.2728 33.4104 39.5745 34.0664 38.7129C34.7225 37.8514 35.1706 36.85 35.376 35.7868C35.5814 34.7236 35.5385 33.6273 35.2505 32.5834L33.6467 26.7694ZM31.8289 37.0087C31.437 37.5275 30.9297 37.9479 30.3471 38.2366C29.7645 38.5253 29.1227 38.6743 28.4725 38.6719H16.5274C15.8777 38.6719 15.2367 38.5219 14.6545 38.2334C14.0723 37.945 13.5646 37.526 13.171 37.009C12.7774 36.4921 12.5084 35.8913 12.3852 35.2533C12.262 34.6154 12.2878 33.9576 12.4605 33.3313L14.0644 27.5174C14.5737 25.6711 15.6747 24.0428 17.1985 22.8825C18.7223 21.7221 20.5847 21.0938 22.4999 21.0938C24.4152 21.0938 26.2776 21.7221 27.8014 22.8825C29.3252 24.0428 30.4262 25.6711 30.9355 27.5174L32.5393 33.3313C32.7146 33.9573 32.7417 34.6157 32.6184 35.254C32.4951 35.8924 32.2248 36.4933 31.8289 37.009V37.0087Z" fill="#968383"/>
<path d="M12.8408 20.2421C13.0855 18.7128 12.761 17.0757 11.9268 15.6311C11.0925 14.1865 9.83675 13.0869 8.39033 12.5342C6.84135 11.9426 5.26142 12.0368 3.94008 12.7993C1.31329 14.316 0.622029 18.0539 2.39944 21.1318C3.23344 22.5764 4.4893 23.6762 5.93572 24.2287C6.57645 24.4784 7.25751 24.6086 7.94516 24.6129C8.80187 24.616 9.64408 24.3919 10.386 23.9635C11.7065 23.2008 12.5784 21.8792 12.8408 20.2421ZM10.0635 19.7975C9.93782 20.5823 9.55286 21.1968 8.97955 21.5278C8.40624 21.8588 7.68167 21.8848 6.93899 21.6013C6.0941 21.2787 5.34685 20.6125 4.8348 19.7256C3.85043 18.0205 4.08439 15.9638 5.34633 15.2351C5.66356 15.055 6.02283 14.9623 6.38757 14.9663C6.7297 14.9698 7.06831 15.0359 7.38671 15.1611C8.2316 15.484 8.97885 16.1501 9.4909 17.037C10.0029 17.9239 10.2062 18.9045 10.0635 19.7975Z" fill="#968383"/>
<path d="M13.1454 14.4156C14.1441 15.2139 15.2844 15.6296 16.4376 15.6295C16.7831 15.6294 17.1275 15.5922 17.465 15.5187C20.4289 14.8743 22.226 11.5247 21.4711 8.05166C21.1169 6.42164 20.2557 4.99158 19.0463 4.02469C17.7513 2.98934 16.2172 2.59743 14.7268 2.92158C11.7629 3.56581 9.96582 6.9155 10.7207 10.3885C11.075 12.0186 11.9362 13.4487 13.1454 14.4156ZM15.3241 5.66991C15.4607 5.64045 15.6002 5.62571 15.74 5.62597C16.2627 5.62597 16.8005 5.83049 17.2901 6.22196C17.9965 6.78665 18.5053 7.64877 18.7227 8.64958C19.1411 10.5739 18.2915 12.4612 16.8676 12.7708C16.2206 12.9114 15.5224 12.7156 14.9018 12.2193C14.1954 11.6545 13.6866 10.7924 13.4691 9.79163C13.0507 7.86674 13.9002 5.97947 15.3241 5.66991Z" fill="#968383"/>
<path d="M41.0599 12.7993C39.7391 12.0368 38.1584 11.9426 36.6097 12.5342C35.1633 13.0867 33.9074 14.1865 33.0734 15.6311C32.2394 17.0757 31.9148 18.7132 32.1593 20.2421C32.4214 21.8792 33.2931 23.2008 34.6142 23.9635C35.3561 24.3919 36.1983 24.616 37.055 24.6129C37.7427 24.6086 38.4237 24.4784 39.0645 24.2287C40.5109 23.6762 41.7668 22.5764 42.6008 21.1318C44.378 18.0539 43.6867 14.316 41.0599 12.7993ZM40.1652 19.7256C39.6532 20.6125 38.9059 21.2787 38.061 21.6013C37.3187 21.885 36.594 21.8589 36.0206 21.5278C35.4473 21.1966 35.0626 20.5823 34.9367 19.7975C34.7938 18.9045 34.997 17.9242 35.5091 17.0378C36.0213 16.1513 36.7684 15.4848 37.6133 15.1619C37.9317 15.0365 38.2703 14.9704 38.6125 14.9667C38.9772 14.9627 39.3365 15.0555 39.6537 15.2355C40.9156 15.9637 41.1499 18.02 40.1652 19.7256Z" fill="#968383"/>
<path d="M27.535 15.5186C27.8725 15.5922 28.217 15.6294 28.5624 15.6295C29.7155 15.6295 30.8563 15.2138 31.8546 14.4155C33.0639 13.4487 33.925 12.0186 34.2793 10.3886C35.0342 6.91556 33.2371 3.56587 30.2733 2.92164C28.7829 2.59767 27.2488 2.98931 25.9537 4.02475C24.7443 4.99155 23.8832 6.4217 23.529 8.05164C22.774 11.5246 24.5711 14.8743 27.535 15.5186ZM26.2773 8.64912C26.4948 7.64831 27.0036 6.78584 27.7099 6.22149C28.1997 5.83002 28.7373 5.6255 29.2601 5.6255C29.3999 5.62525 29.5393 5.63998 29.676 5.66945C31.0998 5.979 31.9493 7.86671 31.5311 9.79064C31.3134 10.7915 30.8046 11.6539 30.0984 12.2184C29.4779 12.7146 28.7801 12.9104 28.1326 12.7699C26.7085 12.4608 25.859 10.5732 26.2773 8.64912Z" fill="#968383"/>
</svg>
