<svg width="45" height="45" viewBox="0 0 45 45" fill="none" xmlns="http://www.w3.org/2000/svg">
<path d="M16.8479 19.4976C16.8479 20.0238 16.4214 20.4502 15.8953 20.4502H7.55721C7.03104 20.4502 6.60458 20.0238 6.60458 19.4976C6.60458 18.9714 7.03104 18.545 7.55721 18.545H15.8953C16.4214 18.545 16.8479 18.9714 16.8479 19.4976ZM13.9141 22.5433H9.53857C9.0124 22.5433 8.58594 22.9697 8.58594 23.4959C8.58594 24.0221 9.0124 24.4485 9.53857 24.4485H13.9141C14.4403 24.4485 14.8667 24.0221 14.8667 23.4959C14.8667 22.9697 14.4402 22.5433 13.9141 22.5433ZM44.6942 35.0241C45.0804 35.3813 45.1039 35.9839 44.7467 36.3702C43.1578 38.0881 40.5546 37.9287 37.2589 37.7272C33.244 37.4815 28.2475 37.1761 22.9536 40.0432C22.6706 40.1963 22.3293 40.1963 22.0463 40.0432C19.8747 38.867 17.7528 38.2247 15.7284 37.8932V42.2608C15.7284 42.5982 15.5499 42.9106 15.2591 43.0817C14.9684 43.2528 14.6087 43.2574 14.3136 43.0938L11.7264 41.6582L9.139 43.0938C8.99515 43.1736 8.83596 43.2134 8.67687 43.2134C8.50963 43.2134 8.34249 43.1695 8.19357 43.0817C7.9028 42.9105 7.72424 42.5983 7.72424 42.2608V37.7282C4.4365 37.9295 1.83932 38.0851 0.253294 36.3702C-0.103942 35.984 -0.0804443 35.3813 0.305794 35.024C0.692138 34.6671 1.29473 34.6903 1.65197 35.0765C2.62756 36.1312 4.8329 35.9962 7.62474 35.8255C11.5517 35.5852 16.8918 35.2588 22.4999 38.1289C28.1081 35.2588 33.4484 35.5852 37.3753 35.8255C40.1672 35.9962 42.3725 36.1311 43.348 35.0765C43.7054 34.6901 44.3081 34.6669 44.6942 35.0241ZM13.8232 37.6637C12.3556 37.5467 10.9509 37.5644 9.6295 37.6227V40.6428L11.2642 39.7358C11.5517 39.5764 11.9011 39.5765 12.1886 39.7358L13.8231 40.6428V37.6637H13.8232ZM28.1518 15.4991C28.1518 16.0253 28.5783 16.4517 29.1044 16.4517H37.4425C37.9686 16.4517 38.3951 16.0253 38.3951 15.4991C38.3951 14.9729 37.9686 14.5465 37.4425 14.5465H29.1044C28.5784 14.5465 28.1518 14.973 28.1518 15.4991ZM45 2.73935V31.6947C45 31.9346 44.9096 32.1656 44.7467 32.3416C43.1578 34.0592 40.5546 33.9 37.2589 33.6984C33.245 33.4531 28.2489 33.1477 22.9563 36.0129C22.9459 36.0186 22.9354 36.024 22.9249 36.0292C22.7889 36.0972 22.6439 36.1294 22.5008 36.1294C22.4344 36.1294 22.231 36.1124 22.0329 36.0071C16.7239 33.1857 11.7525 33.4532 7.74117 33.6983C4.44529 33.8999 1.84217 34.059 0.253399 32.3415C0.090394 32.1656 0 31.9345 0 31.6946V2.73914C0 2.40339 0.17666 2.09252 0.465201 1.92073C0.753636 1.74894 1.11119 1.74185 1.4064 1.90146C6.70016 4.76867 11.6969 4.46298 15.7115 4.21752C18.5617 4.04329 20.8939 3.90061 22.5001 4.97623C24.1062 3.9005 26.4383 4.04329 29.2885 4.21762C33.3037 4.46351 38.3 4.76877 43.5937 1.90168C43.8889 1.74185 44.2465 1.74915 44.5349 1.92094C44.8232 2.09262 45 2.40361 45 2.73935ZM21.5472 6.64037C20.4737 5.83498 18.3997 5.96168 15.8277 6.11918C12.124 6.34548 7.16261 6.64895 1.90526 4.27436V31.2757C2.97887 32.0809 5.05296 31.9541 7.62474 31.7969C8.7951 31.7252 10.0914 31.6459 11.4826 31.6459C14.4938 31.6459 17.9511 32.0174 21.5472 33.6416V6.64037ZM43.0947 4.27457C37.8374 6.64916 32.876 6.34569 29.1722 6.11939C26.6001 5.96221 24.5261 5.83519 23.4526 6.64058V33.6416C28.71 31.2671 33.6715 31.5704 37.3753 31.7969C39.947 31.9541 42.0212 32.081 43.0948 31.2757V4.27457H43.0947ZM37.4426 18.545H29.1045C28.5784 18.545 28.1519 18.9714 28.1519 19.4976C28.1519 20.0238 28.5784 20.4502 29.1045 20.4502H37.4426C37.9687 20.4502 38.3952 20.0238 38.3952 19.4976C38.3952 18.9714 37.9686 18.545 37.4426 18.545ZM15.8953 14.5465H7.55721C7.03104 14.5465 6.60458 14.9729 6.60458 15.4991C6.60458 16.0253 7.03104 16.4517 7.55721 16.4517H15.8953C16.4214 16.4517 16.8479 16.0253 16.8479 15.4991C16.8479 14.9729 16.4214 14.5465 15.8953 14.5465ZM35.4612 22.5433H31.0859C30.5597 22.5433 30.1333 22.9697 30.1333 23.4959C30.1333 24.0221 30.5597 24.4485 31.0859 24.4485H35.4612C35.9874 24.4485 36.4138 24.0221 36.4138 23.4959C36.4138 22.9697 35.9874 22.5433 35.4612 22.5433Z" fill="#968383"/>
</svg>
