<svg width="45" height="45" viewBox="0 0 45 45" fill="none" xmlns="http://www.w3.org/2000/svg">
<g clip-path="url(#clip0_229_1464)">
<path d="M42.7713 29.0193C42.0806 28.6145 41.2925 28.4006 40.4921 28.4006C39.6854 28.4006 38.8921 28.6176 38.1978 29.0282C37.9072 29.2 37.6139 29.3668 37.3184 29.5286C37.2769 29.1033 37.1694 28.6832 36.9944 28.2859L35.8362 25.6552C36.1784 23.4927 36.0539 21.375 35.4648 19.3342L36.0724 18.222C36.2784 18.3177 36.4918 18.4007 36.7118 18.47C37.114 18.5967 37.526 18.6609 37.9361 18.6609C38.1694 18.6609 38.4027 18.6398 38.6297 18.5982C40.2296 18.3056 41.4739 17.0898 41.7998 15.501C41.951 14.7637 42.1626 14.1522 42.3672 13.5608C42.7784 12.3727 43.2323 11.0614 42.9937 9.33817L44.0422 7.99872C44.7191 7.13378 44.9259 6.00043 44.5951 4.96702C44.1583 3.60251 42.9033 2.68582 41.4722 2.68582C41.3143 2.68582 41.155 2.69733 40.9987 2.72018L40.3314 2.81765C39.9742 1.45315 38.7981 0.443989 37.3949 0.302046C37.0989 0.272163 36.7966 0.256958 36.4961 0.256958C33.1903 0.256958 30.4279 2.02171 28.9173 5.09885C28.3766 6.20021 27.7077 7.47752 26.9289 8.89529C26.7766 9.17258 26.4802 9.34485 26.1555 9.34485C26.1282 9.34485 26.1004 9.34362 26.073 9.34116C25.0431 9.25054 23.9747 9.20458 22.8974 9.20458C20.3424 9.20458 14.1114 9.48688 11.235 12.0909C11.0568 12.0813 10.8805 12.0765 10.7073 12.0765C7.99365 12.0765 5.55829 13.2297 3.66442 15.4112C3.04233 16.1278 2.69965 17.0456 2.6993 17.9955C2.69903 18.9397 3.03732 19.8543 3.65203 20.5709L6.46409 23.849C6.99513 24.468 7.70854 24.8874 8.49111 25.0553L7.21055 27.9638C7.05841 28.3094 6.95804 28.6731 6.90688 29.0425C6.89071 29.0331 6.87436 29.0238 6.85828 29.0143C6.15674 28.5987 5.35526 28.379 4.54043 28.379C3.75451 28.379 2.97809 28.5845 2.29509 28.9732C0.879434 29.7792 0 31.2918 0 32.921C0 34.3967 0.719385 35.7845 1.92428 36.6349C5.53623 39.1842 9.09606 41.1741 12.5049 42.5491C16.114 44.005 19.4901 44.743 22.5396 44.743C25.6139 44.743 28.9895 44.0021 32.573 42.5408C35.916 41.1775 39.4508 39.1846 43.0796 36.6171C44.2453 35.7923 44.9625 34.4486 44.9985 33.0219C44.9985 33.02 44.9986 33.0182 44.9986 33.0166C45.0386 31.3796 44.1851 29.8479 42.7713 29.0193ZM22.8972 12.0035C23.8854 12.0035 24.8744 12.0454 25.8275 12.1293C25.9046 12.1361 25.9815 12.1396 26.0582 12.1416C25.9877 15.3055 23.7947 17.8455 21.0968 17.8455C18.6219 17.8455 16.5642 15.5454 16.1876 12.7495C18.0859 12.2524 20.4909 12.0035 22.8972 12.0035ZM5.77591 18.7491C5.40501 18.3167 5.40413 17.6763 5.77758 17.2461C7.38352 15.396 9.18598 14.8753 10.7071 14.8753C10.8386 14.8753 10.968 14.8791 11.095 14.8864C11.1491 14.8895 11.2032 14.8911 11.257 14.8911C11.9343 14.8911 12.5912 14.648 13.091 14.1858C13.2163 14.0698 13.3596 13.959 13.5159 13.8523C14.2848 17.7829 17.4073 20.6438 21.0967 20.6438C22.197 20.6438 23.261 20.3931 24.259 19.8987C25.1862 19.4393 26.0121 18.7909 26.7137 17.9715C28.0756 16.381 28.8374 14.2891 28.8591 12.0811C28.8609 11.9058 28.7946 11.4309 28.7359 11.0914C28.9871 10.8451 29.2062 10.5615 29.3814 10.2427C30.0023 9.1122 30.763 7.68873 31.4291 6.33222C32.801 3.53765 35.0839 3.05557 36.4957 3.05557C36.7276 3.05557 36.9359 3.06858 37.113 3.08642C37.3529 3.11068 37.5619 3.28022 37.6253 3.53211C37.6465 3.6164 37.6448 3.705 37.6289 3.79034L37.3689 5.18033C37.6889 5.39179 37.9992 5.64791 38.291 5.94383L41.4025 5.48935C41.4258 5.48592 41.449 5.48434 41.4719 5.48434C41.6749 5.48434 41.8634 5.61354 41.9295 5.82008C41.9792 5.97521 41.9387 6.14554 41.8382 6.27377L39.9597 8.6738C40.8096 11.096 39.6344 12.129 39.0582 14.9388C38.9655 15.3908 38.6082 15.7572 38.1257 15.8454C38.063 15.8568 37.9995 15.8623 37.936 15.8623C37.8063 15.8623 37.6765 15.8398 37.5522 15.8006C36.6159 15.5058 35.9356 14.6948 35.808 13.7214L35.7178 13.0334L32.6673 18.6177C32.5927 18.7744 32.5125 18.9288 32.4271 19.0808C33.1285 20.8784 33.5348 23.2118 32.926 25.9905L34.4332 29.4134C34.73 30.0874 34.3937 30.8754 33.6991 31.1198C33.6916 31.1225 33.6841 31.1252 33.6766 31.1278C33.5367 31.177 33.3931 31.2006 33.2511 31.2006C32.8308 31.2006 32.4265 30.9933 32.1869 30.6256L29.431 26.3977C28.3944 25.9812 27.2337 25.1689 26.1268 23.6527C25.1096 23.9208 24.0253 24.0674 22.8986 24.0674C21.2328 24.0674 19.6588 23.7494 18.2604 23.186C17.2 25.1847 15.9014 26.1597 14.7832 26.6256L12.3129 30.4155C12.0731 30.7835 11.6686 30.9913 11.2488 30.9913C11.0999 30.9913 10.949 30.9651 10.8029 30.9107C10.6917 30.8693 10.5807 30.8272 10.47 30.7844C9.79699 30.5253 9.4812 29.7518 9.77186 29.0919L11.5561 25.0394C11.2664 23.9699 11.1448 22.9559 11.1394 22.0126C11.1375 21.6734 10.8642 21.4728 10.588 21.4728C10.4005 21.4728 10.2117 21.5652 10.1055 21.7692C10.0942 21.791 10.083 21.8126 10.072 21.8339C9.96618 22.0398 9.79137 22.2064 9.57366 22.2851C9.4725 22.3216 9.36879 22.3391 9.26675 22.3391C9.00773 22.3391 8.75918 22.2264 8.58823 22.0271L5.77591 18.7491ZM30.0067 32.3869C27.5753 32.9943 25.0676 33.3066 22.5395 33.3066C19.7961 33.3066 17.0768 32.9395 14.4534 32.226C14.5245 32.135 14.5934 32.0416 14.6572 31.9436L16.7093 28.7952C17.559 28.3205 18.5205 27.5923 19.4292 26.4775C20.5517 26.7356 21.7121 26.8658 22.8983 26.8658C23.6233 26.8658 24.3446 26.8157 25.0563 26.7165C25.8155 27.4938 26.6384 28.1197 27.5188 28.5895L29.8422 32.154C29.8944 32.234 29.9497 32.3113 30.0067 32.3869ZM42.2009 32.9497C42.1875 33.5013 41.9137 34.014 41.4633 34.3327C34.6381 39.1617 28.0711 41.9446 22.5396 41.9446C17.0795 41.9446 10.3662 39.1679 3.53813 34.3486C3.07547 34.0221 2.79861 33.4889 2.79861 32.9226V32.9211C2.79861 32.2943 3.13488 31.7157 3.67963 31.4056C3.94673 31.2535 4.24362 31.1778 4.54052 31.1778C4.84893 31.1778 5.15707 31.2594 5.4319 31.4223C10.7009 34.5439 16.6208 36.1051 22.5397 36.1051C28.4499 36.1051 34.3591 34.5493 39.6223 31.4371C39.8906 31.2785 40.1914 31.1991 40.4923 31.1991C40.7909 31.1991 41.0896 31.2773 41.3565 31.4337C41.8922 31.7476 42.2163 32.3275 42.2012 32.9484L42.2009 32.9497Z" fill="#968383"/>
</g>
<defs>
<clipPath id="clip0_229_1464">
<rect width="45" height="45" fill="#968383"/>
</clipPath>
</defs>
</svg>
