<svg width="45" height="45" viewBox="0 0 45 45" fill="none" xmlns="http://www.w3.org/2000/svg">
<g clip-path="url(#clip0_230_1616)">
<path d="M41.1275 2.91761C40.5354 2.32488 39.7264 1.99775 38.8503 1.99775C37.8662 1.99775 36.8748 2.41249 36.1146 3.13884L32.8521 5.78697L32.7251 5.9023C32.0038 6.62256 31.7199 7.63446 31.8945 8.65357L24.2889 16.0385L23.0125 14.934C23.9274 11.356 23.8148 6.58984 20.7292 3.50423C18.4698 1.24478 15.5788 0 12.5897 0C11.4014 0 10.2271 0.198499 9.09873 0.589399C8.58197 0.768492 8.18608 1.18989 8.04026 1.71718C7.89443 2.24448 8.01697 2.80893 8.36739 3.22866L12.4666 8.12793L12.2647 11.279L8.85809 11.6677L3.99486 7.59897C3.57513 7.24744 3.01013 7.1249 2.48283 7.27184C1.95553 7.41822 1.53414 7.81411 1.35504 8.33087C0.0265414 12.1672 1.19702 16.2991 4.56652 19.6664C6.38184 21.4828 8.9956 22.4426 12.1239 22.4426C12.3529 22.4426 12.5836 22.431 12.8142 22.4199C12.6983 22.5208 12.5819 22.6206 12.4721 22.7304L3.12768 32.0743C0.533324 34.6686 0.533324 38.8892 3.12768 41.4836L4.69515 43.051C5.95158 44.308 7.62274 45 9.39981 45C11.1769 45 12.848 44.308 14.1045 43.051L23.4483 33.7066C23.9662 33.1893 24.3737 32.6077 24.6809 31.9861L32.9807 41.5762C33.0074 41.6067 33.0351 41.6355 33.0628 41.6643C33.9932 42.5942 35.3893 43.1065 36.9962 43.1065C38.9485 43.1065 40.9301 42.3386 42.1672 41.1021C44.3418 38.9275 45.0271 34.3004 42.7283 32C42.6989 31.9717 42.6706 31.944 42.6401 31.919L30.5555 21.4629L37.5274 14.2831C37.7192 14.3158 37.9111 14.3319 38.1046 14.3319C38.9396 14.3319 39.7103 14.0197 40.2759 13.4547L43.0393 10.0652C43.672 9.40432 44.0679 8.57095 44.1599 7.7082C44.2669 6.69796 43.9392 5.72986 43.2611 5.05231L41.1275 2.91761ZM21.0963 31.3546L11.7524 40.699C11.1242 41.3272 10.2886 41.6732 9.39981 41.6732C8.511 41.6732 7.67597 41.3272 7.0472 40.699L5.47973 39.1315C4.18283 37.8341 4.18283 35.7238 5.47973 34.4274L14.8242 25.0824C15.4524 24.4542 16.288 24.1082 17.1762 24.1082C17.4374 24.1082 17.693 24.1426 17.9408 24.1997L22.0649 28.9654C22.0749 29.8287 21.7539 30.697 21.0963 31.3546ZM39.814 38.75C39.198 39.3661 38.0652 39.7797 36.9951 39.7797C36.3236 39.7797 35.7498 39.6172 35.4465 39.3422L17.81 18.9644C17.3681 18.4538 16.6606 18.2608 16.0218 18.4765C14.7798 18.8946 13.4319 19.1153 12.1234 19.1153C9.92877 19.1153 8.08018 18.4754 6.91857 17.3132C5.8673 16.262 4.39075 14.4023 4.17007 12.0835L7.26955 14.6767C7.61886 14.9695 8.07186 15.1053 8.52597 15.0538L14.0235 14.4261C14.8236 14.3346 15.4435 13.6837 15.4945 12.8797L15.8277 7.6766C15.8549 7.25021 15.7174 6.83048 15.4435 6.50335L12.7882 3.32958C14.8192 3.38502 16.7964 4.27716 18.3755 5.85628C20.5479 8.02924 20.5008 12.099 19.5371 14.9612C19.3214 15.601 19.5144 16.308 20.0251 16.7499L40.4056 34.3864C41.1447 35.1954 40.9701 37.5934 39.814 38.75ZM40.6207 7.78195L38.0109 10.9823C37.9837 10.9718 37.9532 10.9574 37.9199 10.9374L36.7905 10.2665L28.0371 19.2822L26.8134 18.2237L35.9122 9.38824L35.2419 8.2599C35.2225 8.22552 35.2069 8.19503 35.1975 8.16841L38.2698 5.67386L38.3973 5.55853C38.5631 5.39386 38.7289 5.33675 38.832 5.32732L40.8536 7.34891C40.847 7.43208 40.7932 7.60895 40.6207 7.78195Z" fill="#968383"/>
</g>
<defs>
<clipPath id="clip0_230_1616">
<rect width="45" height="45" fill="#968383"/>
</clipPath>
</defs>
</svg>
