<svg width="45" height="45" viewBox="0 0 45 45" fill="none" xmlns="http://www.w3.org/2000/svg">
<g clip-path="url(#clip0_229_1355)">
<path d="M15.4688 2.8125H12.6562V16.875H15.4688V2.8125Z" fill="#968383"/>
<path d="M19.6875 15.4688C19.6875 16.9606 19.0949 18.3913 18.04 19.4462C16.9851 20.5011 15.5543 21.0938 14.0625 21.0938C12.5707 21.0938 11.1399 20.5011 10.085 19.4462C9.03013 18.3913 8.4375 16.9606 8.4375 15.4688V2.8125H5.625V15.4688C5.62702 17.4612 6.3341 19.3887 7.62101 20.9098C8.90792 22.431 10.6916 23.4476 12.6562 23.7797V42.1875H15.4688V23.7797C17.4334 23.4476 19.2171 22.431 20.504 20.9098C21.7909 19.3887 22.498 17.4612 22.5 15.4688V2.8125H19.6875V15.4688Z" fill="#968383"/>
<path d="M30.9375 2.81252H29.5312V42.1875H32.3438V28.125H36.5625C37.3084 28.125 38.0238 27.8287 38.5512 27.3013C39.0787 26.7738 39.375 26.0584 39.375 25.3125V11.25C39.4185 10.1303 39.23 9.01375 38.8214 7.97038C38.4127 6.92701 37.7928 5.97941 37.0005 5.18707C36.2081 4.39473 35.2605 3.77478 34.2171 3.36615C33.1738 2.95752 32.0572 2.76903 30.9375 2.81252ZM36.5625 25.3125H32.3438V5.75159C36.3938 6.53909 36.5625 10.7297 36.5625 11.25V25.3125Z" fill="#968383"/>
</g>
<defs>
<clipPath id="clip0_229_1355">
<rect width="45" height="45" fill="#968383"/>
</clipPath>
</defs>
</svg>
