<svg width="45" height="45" viewBox="0 0 45 45" fill="none" xmlns="http://www.w3.org/2000/svg">
<path d="M25.5859 18.0026L30.4963 0C30.4963 0 27.3733 0.232494 26.7748 2.44696C26.3065 4.16181 22.8652 14.5416 21.3219 19.1701L14.4625 21.0383C14.0981 19.7241 13.206 18.6754 12.0155 17.996C10.5101 17.1337 8.53635 16.8682 6.55107 17.4024C2.98781 18.3703 0.761804 21.5906 1.57306 24.5817C1.93582 25.9107 2.83611 26.966 4.03651 27.6553C5.5403 28.5143 7.47611 28.5902 9.4993 28.2489C11.6643 27.8828 20.3128 23.1175 20.3128 23.1175C20.3128 23.1175 15.0231 32.6399 14.3454 34.8082C12.9356 39.3278 14.4955 43.7056 17.9054 44.7741C18.3852 44.9241 18.8832 45 19.391 45C22.4019 45 25.3287 42.3684 26.5027 38.6023C27.9109 34.0777 26.3477 29.7016 22.9411 28.6364C22.8636 28.61 22.7828 28.6017 22.7037 28.5819L24.4218 22.2667C29.0535 20.7233 39.4333 17.2821 41.1482 16.8154C43.3627 16.2119 43.5952 13.0939 43.5952 13.0939L25.5859 18.0026ZM8.70288 25.3336C7.57669 25.637 6.38948 25.5265 5.53041 25.0335C5.14622 24.8159 4.65485 24.4267 4.48501 23.7919C4.11731 22.4316 5.42323 20.842 7.34419 20.3177C8.48193 20.0077 9.63616 20.1165 10.515 20.6178C10.8926 20.8338 11.3856 21.2295 11.5621 21.8611C11.9298 23.2214 10.6222 24.8126 8.70288 25.3336ZM23.632 37.7053C22.8059 40.3501 20.5667 42.2365 18.8601 41.7072C17.1205 41.163 16.3669 38.4143 17.2128 35.7019C17.9416 33.367 19.7208 31.606 21.3516 31.606C21.5676 31.606 21.7803 31.6407 21.9831 31.7017C23.721 32.2441 24.4762 34.9945 23.632 37.7053Z" fill="#968383"/>
</svg>
