<svg width="45" height="45" viewBox="0 0 45 45" fill="none" xmlns="http://www.w3.org/2000/svg">
<g clip-path="url(#clip0_229_945)">
<path d="M18.8689 35.4049C16.6866 35.4049 14.9113 37.1803 14.9113 39.3625C14.9113 41.5448 16.6866 43.3202 18.8689 43.3202C21.0511 43.3202 22.8265 41.5448 22.8265 39.3625C22.8264 37.1803 21.051 35.4049 18.8689 35.4049ZM18.8689 41.1103C17.9051 41.1103 17.121 40.3261 17.121 39.3624C17.121 38.3986 17.9052 37.6145 18.8689 37.6145C19.8326 37.6145 20.6168 38.3986 20.6168 39.3624C20.6168 40.3263 19.8326 41.1103 18.8689 41.1103Z" fill="#968383"/>
<path d="M32.7507 35.4049C30.5685 35.4049 28.7931 37.1803 28.7931 39.3625C28.7931 41.5448 30.5685 43.3202 32.7507 43.3202C34.933 43.3202 36.7084 41.5448 36.7084 39.3625C36.7083 37.1803 34.9329 35.4049 32.7507 35.4049ZM32.7507 41.1103C31.7869 41.1103 31.0028 40.3261 31.0028 39.3624C31.0028 38.3986 31.787 37.6145 32.7507 37.6145C33.7145 37.6145 34.4986 38.3986 34.4986 39.3624C34.4986 40.3263 33.7144 41.1103 32.7507 41.1103Z" fill="#968383"/>
<path d="M33.7251 14.5684H17.8916C17.2814 14.5684 16.7867 15.063 16.7867 15.6732C16.7867 16.2835 17.2815 16.7781 17.8916 16.7781H33.7251C34.3353 16.7781 34.8299 16.2835 34.8299 15.6732C34.8299 15.0629 34.3353 14.5684 33.7251 14.5684Z" fill="#968383"/>
<path d="M32.8634 20.3059H18.7536C18.1433 20.3059 17.6487 20.8006 17.6487 21.4108C17.6487 22.021 18.1433 22.5157 18.7536 22.5157H32.8633C33.4735 22.5157 33.9682 22.021 33.9682 21.4108C33.9682 20.8006 33.4735 20.3059 32.8634 20.3059Z" fill="#968383"/>
<path d="M44.5028 9.64548C44.0814 9.12833 43.457 8.83178 42.7898 8.83178H8.3741L7.67906 5.45774C7.53395 4.75391 7.05389 4.16294 6.39462 3.87668L1.54507 1.77169C0.985208 1.5285 0.334552 1.7854 0.0917097 2.34509C-0.151396 2.90496 0.105509 3.5557 0.665109 3.79854L5.51475 5.90361L10.8608 31.8543C11.0714 32.8763 11.9816 33.6181 13.0251 33.6181H39.4948C40.105 33.6181 40.5997 33.1235 40.5997 32.5133C40.5997 31.903 40.105 31.4084 39.4948 31.4084H13.0252L12.3749 28.2517H39.6994C40.7429 28.2517 41.6532 27.5099 41.8637 26.4879L44.9542 11.4871C45.0887 10.8339 44.9242 10.1625 44.5028 9.64548ZM39.6994 26.0421H11.9197L8.82937 11.0414L42.7898 11.0415L39.6994 26.0421Z" fill="#968383"/>
</g>
<defs>
<clipPath id="clip0_229_945">
<rect width="45" height="45" fill="#968383"/>
</clipPath>
</defs>
</svg>
