<svg width="45" height="45" viewBox="0 0 45 45" fill="none" xmlns="http://www.w3.org/2000/svg">
<g clip-path="url(#clip0_230_1750)">
<path d="M35.9695 25.2394C35.3506 25.2394 34.7408 25.0028 34.2676 24.5296C27.7694 18.0405 17.2123 18.0405 10.7141 24.5296C9.77673 25.467 8.24776 25.467 7.31035 24.5296C6.37295 23.5921 6.37295 22.0632 7.31035 21.1258C15.6833 12.7528 29.2984 12.7528 37.6714 21.1258C38.6088 22.0632 38.6088 23.5921 37.6714 24.5296C37.1981 25.0028 36.5792 25.2394 35.9695 25.2394Z" fill="#968383"/>
<path d="M29.4532 31.7466C28.8343 31.7466 28.2245 31.51 27.7513 31.0367C26.3497 29.6351 24.4749 28.8616 22.4909 28.8616C20.5069 28.8616 18.632 29.6351 17.2305 31.0367C16.2931 31.9741 14.7641 31.9741 13.8267 31.0367C12.8893 30.0993 12.8893 28.5703 13.8267 27.6329C16.1384 25.3213 19.2145 24.0471 22.4909 24.0471C25.7673 24.0471 28.8434 25.3213 31.1551 27.642C32.0925 28.5794 32.0925 30.1084 31.1551 31.0458C30.6909 31.51 30.072 31.7466 29.4532 31.7466Z" fill="#968383"/>
<path d="M22.4909 39.5189C24.2652 39.5189 25.7035 38.0806 25.7035 36.3063C25.7035 34.532 24.2652 33.0936 22.4909 33.0936C20.7166 33.0936 19.2782 34.532 19.2782 36.3063C19.2782 38.0806 20.7166 39.5189 22.4909 39.5189Z" fill="#968383"/>
<path d="M42.586 18.623C41.9671 18.623 41.3573 18.3863 40.8841 17.9131C30.7364 7.77454 14.2454 7.77454 4.10684 17.9131C3.16943 18.8505 1.64046 18.8505 0.703054 17.9131C-0.234351 16.9757 -0.234351 15.4467 0.703054 14.5093C6.52771 8.68464 14.2636 5.48108 22.5 5.48108C30.7364 5.48108 38.4723 8.68464 44.2969 14.5093C45.2344 15.4467 45.2344 16.9757 44.2969 17.9131C43.8146 18.3863 43.1957 18.623 42.586 18.623Z" fill="#968383"/>
</g>
<defs>
<clipPath id="clip0_230_1750">
<rect width="45" height="45" fill="#968383"/>
</clipPath>
</defs>
</svg>
